<svg width="25" height="24" viewBox="0 0 25 24" fill="none" xmlns="http://www.w3.org/2000/svg">
<path d="M7.22754 9.25977L12.5275 12.3298L17.7875 9.27976" stroke="#007E8F" stroke-width="1.5" stroke-linecap="round" stroke-linejoin="round"/>
<path d="M12.5273 17.7698V12.3198" stroke="#007E8F" stroke-width="1.5" stroke-linecap="round" stroke-linejoin="round"/>
<path d="M11.2876 6.28986L8.08759 8.06986C7.36759 8.46986 6.76758 9.47985 6.76758 10.3099V13.6999C6.76758 14.5299 7.35759 15.5399 8.08759 15.9399L11.2876 17.7199C11.9676 18.0999 13.0876 18.0999 13.7776 17.7199L16.9776 15.9399C17.6976 15.5399 18.2976 14.5299 18.2976 13.6999V10.2999C18.2976 9.46986 17.7076 8.45985 16.9776 8.05985L13.7776 6.27985C13.0876 5.89985 11.9676 5.89986 11.2876 6.28986Z" stroke="#007E8F" stroke-width="1.5" stroke-linecap="round" stroke-linejoin="round"/>
<path d="M22.5273 15C22.5273 18.87 19.3973 22 15.5273 22L16.5773 20.25" stroke="#007E8F" stroke-width="1.5" stroke-linecap="round" stroke-linejoin="round"/>
<path d="M2.52734 9C2.52734 5.13 5.65734 2 9.52734 2L8.47736 3.75" stroke="#007E8F" stroke-width="1.5" stroke-linecap="round" stroke-linejoin="round"/>
</svg>
