<svg width="29" height="30" viewBox="0 0 29 30" fill="none" xmlns="http://www.w3.org/2000/svg">
<path fill-rule="evenodd" clip-rule="evenodd" d="M10.295 0.955893C10.4372 0.803256 10.6087 0.68083 10.7993 0.595918C10.9899 0.511006 11.1956 0.465348 11.4042 0.461668C11.6128 0.457987 11.82 0.49636 12.0135 0.574496C12.2069 0.652632 12.3826 0.768932 12.5302 0.916456C12.6777 1.06398 12.794 1.23971 12.8721 1.43316C12.9502 1.6266 12.9886 1.83381 12.9849 2.0424C12.9813 2.251 12.9356 2.45672 12.8507 2.64729C12.7658 2.83786 12.6434 3.00938 12.4907 3.15161L10.9993 4.64304H15.5357C15.8104 4.64304 16.0738 4.75216 16.2681 4.94639C16.4623 5.14062 16.5714 5.40406 16.5714 5.67875V16.0359C16.5714 16.3106 16.4623 16.574 16.2681 16.7683C16.0738 16.9625 15.8104 17.0716 15.5357 17.0716H9.58036V7.75018C9.58036 7.40682 9.44396 7.07752 9.20117 6.83473C8.95837 6.59194 8.62908 6.45554 8.28572 6.45554C7.94235 6.45554 7.61306 6.59194 7.37026 6.83473C7.12747 7.07752 6.99107 7.40682 6.99107 7.75018V17.0716H1.03572C0.761026 17.0716 0.497587 16.9625 0.303354 16.7683C0.109119 16.574 0 16.3106 0 16.0359V5.67875C0 5.40406 0.109119 5.14062 0.303354 4.94639C0.497587 4.75216 0.761026 4.64304 1.03572 4.64304H5.57214L4.08072 3.15161C3.80629 2.8571 3.65689 2.46758 3.66399 2.0651C3.67109 1.66262 3.83414 1.2786 4.11878 0.993962C4.40343 0.709321 4.78744 0.546275 5.18992 0.539173C5.5924 0.532072 5.98192 0.68147 6.27643 0.955893L8.28572 2.96518L10.295 0.955893ZM25.1824 15.0002H29V23.2859L25.2134 27.0725C24.444 27.8422 23.5304 28.4527 22.5249 28.8693C21.5194 29.2858 20.4417 29.5002 19.3534 29.5002H7.25C6.42594 29.5002 5.63562 29.1728 5.05292 28.5901C4.47022 28.0074 4.14286 27.2171 4.14286 26.393C4.14286 25.569 4.47022 24.7787 5.05292 24.196C5.63562 23.6133 6.42594 23.2859 7.25 23.2859H13.0024C13.2177 24.0121 13.6181 24.6698 14.1642 25.1946C14.7103 25.7194 15.3835 26.0933 16.1176 26.2797C16.8518 26.466 17.6217 26.4583 18.352 26.2574C19.0823 26.0565 19.7479 25.6692 20.2834 25.1336L23.287 22.13C23.4072 22.0098 23.5026 21.8671 23.5677 21.71C23.6328 21.5529 23.6662 21.3845 23.6662 21.2145C23.6662 21.0444 23.6328 20.8761 23.5677 20.719C23.5026 20.5619 23.4072 20.4191 23.287 20.2989C23.1668 20.1787 23.024 20.0833 22.8669 20.0182C22.7098 19.9531 22.5415 19.9197 22.3714 19.9197C22.2014 19.9197 22.033 19.9531 21.8759 20.0182C21.7188 20.0833 21.5761 20.1787 21.4559 20.2989L18.4523 23.3025C18.1356 23.6175 17.7121 23.802 17.2657 23.8194C16.8194 23.8369 16.3827 23.6861 16.0424 23.3968C15.702 23.1075 15.4828 22.7009 15.428 22.2576C15.3733 21.8142 15.4872 21.3665 15.747 21.0032L19.3223 17.4279C20.0918 16.6582 21.0053 16.0476 22.0108 15.6311C23.0163 15.2145 24.094 15.0001 25.1824 15.0002Z" fill="#FFCA28"/>
</svg>
