<svg width="24" height="25" viewBox="0 0 24 25" fill="none" xmlns="http://www.w3.org/2000/svg">
<path d="M23.0002 18.5316C23.0202 19.2816 22.8202 19.9916 22.4602 20.6016C22.2602 20.9616 21.9902 21.2917 21.6902 21.5617C21.0002 22.2017 20.0902 22.5917 19.0802 22.6217C17.6202 22.6517 16.3302 21.9017 15.6202 20.7517C15.2402 20.1617 15.0102 19.4517 15.0002 18.7017C14.9702 17.4417 15.5302 16.3016 16.4302 15.5516C17.1102 14.9916 17.9702 14.6417 18.9102 14.6217C21.1202 14.5717 22.9502 16.3216 23.0002 18.5316Z" stroke="#007E8F" stroke-width="1.5" stroke-miterlimit="10" stroke-linecap="round" stroke-linejoin="round"/>
<path d="M17.4404 18.6519L18.4504 19.6118L20.5404 17.5918" stroke="#007E8F" stroke-width="1.5" stroke-linecap="round" stroke-linejoin="round"/>
<path d="M3.16992 8.06152L11.9999 13.1715L20.7699 8.09149" stroke="#007E8F" stroke-width="1.5" stroke-linecap="round" stroke-linejoin="round"/>
<path d="M12 22.2316V13.1616" stroke="#007E8F" stroke-width="1.5" stroke-linecap="round" stroke-linejoin="round"/>
<path d="M21.6101 9.79158V15.4516C21.6101 15.5016 21.6101 15.5416 21.6001 15.5916C20.9001 14.9816 20.0001 14.6216 19.0001 14.6216C18.0601 14.6216 17.1901 14.9516 16.5001 15.5016C15.5801 16.2316 15.0001 17.3616 15.0001 18.6216C15.0001 19.3716 15.2101 20.0816 15.5801 20.6816C15.6701 20.8416 15.7801 20.9916 15.9001 21.1316L14.0701 22.1416C12.9301 22.7816 11.0701 22.7816 9.93011 22.1416L4.59012 19.1816C3.38012 18.5116 2.39014 16.8316 2.39014 15.4516V9.79158C2.39014 8.41158 3.38012 6.7316 4.59012 6.0616L9.93011 3.10158C11.0701 2.46158 12.9301 2.46158 14.0701 3.10158L19.4101 6.0616C20.6201 6.7316 21.6101 8.41158 21.6101 9.79158Z" stroke="#007E8F" stroke-width="1.5" stroke-linecap="round" stroke-linejoin="round"/>
</svg>
