<svg width="55" height="56" viewBox="0 0 55 56" fill="none" xmlns="http://www.w3.org/2000/svg">
<path fill-rule="evenodd" clip-rule="evenodd" d="M7.80671 0.743164C7.4356 0.743039 7.07214 0.848968 6.75895 1.04853C6.44577 1.24809 6.19585 1.53302 6.03849 1.86989L0.183458 14.4243C0.0398723 14.7332 -0.0206778 15.0744 0.00780672 15.4141H0V19.1112C0 21.1612 0.882159 23.1251 2.45912 24.5726C4.02826 26.0202 6.1634 26.8339 8.38831 26.8339H9.55932C11.7491 26.8479 13.8652 26.0414 15.4924 24.5726C16.1352 23.9806 16.6556 23.3181 17.0538 22.5852C17.5495 21.9201 18.3536 21.9201 18.8181 22.5305C19.2214 23.2868 19.751 23.9676 20.4068 24.5726C21.9798 26.0202 24.1149 26.8339 26.3399 26.8339H28.436C30.6258 26.8479 32.7418 26.0414 34.3691 24.5726C34.9806 24.0067 35.4828 23.3755 35.8758 22.6791C36.3871 21.8771 37.281 21.8967 37.7494 22.64C38.1475 23.352 38.6575 23.9962 39.2795 24.5726C40.8525 26.0202 42.9877 26.8339 45.2126 26.8339H46.2587C48.4485 26.8479 50.5645 26.0414 52.1918 24.5726C53.7648 23.1251 54.647 21.1612 54.647 19.1112V15.4141H54.6392C54.6677 15.0744 54.6071 14.7332 54.4635 14.4243L48.6085 1.86989C48.4512 1.53302 48.2012 1.24809 47.8881 1.04853C47.5749 0.848968 47.2114 0.743039 46.8403 0.743164H7.80671ZM3.90336 51.6023V30.9809C8.54055 32.5145 14.0716 31.8299 17.8696 28.8839C22.9361 32.8118 31.7226 32.8118 36.7852 28.8839C40.6027 31.8416 46.1221 32.5145 50.7436 30.9418V51.6023C50.7436 52.6399 50.3324 53.635 49.6004 54.3687C48.8684 55.1024 47.8755 55.5146 46.8403 55.5146H41.9416V40.6872C41.9433 40.5722 41.9197 40.4582 41.8725 40.3534C41.8252 40.2486 41.7555 40.1555 41.6683 40.0808C41.4863 39.9169 41.2495 39.8275 41.0048 39.8304H33.2293C32.9846 39.8275 32.7478 39.9169 32.5657 40.0808C32.4785 40.1555 32.4088 40.2486 32.3616 40.3534C32.3144 40.4582 32.2908 40.5722 32.2925 40.6872V55.5146H7.80671C6.77148 55.5146 5.77865 55.1024 5.04662 54.3687C4.3146 53.635 3.90336 52.6399 3.90336 51.6023ZM9.7662 42.8389V37.9095C9.7662 37.3907 9.97182 36.8931 10.3378 36.5263C10.7038 36.1595 11.2003 35.9534 11.7179 35.9534H23.4826C24.0002 35.9534 24.4966 36.1595 24.8626 36.5263C25.2287 36.8931 25.4343 37.3907 25.4343 37.9095V42.8389C25.4343 43.3577 25.2287 43.8553 24.8626 44.2221C24.4966 44.5889 24.0002 44.795 23.4826 44.795H11.7179C11.2003 44.795 10.7038 44.5889 10.3378 44.2221C9.97182 43.8553 9.7662 43.3577 9.7662 42.8389Z" fill="white" fill-opacity="0.8"/>
</svg>
