<svg width="27" height="20" viewBox="0 0 27 20" fill="none" xmlns="http://www.w3.org/2000/svg">
<path d="M12.2915 6.37484H25.5832M1.4165 8.7915L4.8083 4.9768C5.26175 4.4665 5.81817 4.05805 6.4409 3.77834C7.06363 3.49863 7.73855 3.35401 8.42121 3.354H8.6665M1.4165 19.0623H8.06234L12.8957 15.4373C12.8957 15.4373 13.8744 14.7764 15.3123 13.6248C18.3332 11.2082 15.3123 7.38259 12.2915 9.39567C9.83134 11.0354 7.45817 12.4165 7.45817 12.4165" stroke="#292929" stroke-width="1.38095" stroke-linecap="round" stroke-linejoin="round"/>
<path d="M8.6665 11.8123V3.95817C8.6665 3.31723 8.92112 2.70254 9.37433 2.24933C9.82754 1.79612 10.4422 1.5415 11.0832 1.5415H23.1665C23.8074 1.5415 24.4221 1.79612 24.8753 2.24933C25.3286 2.70254 25.5832 3.31723 25.5832 3.95817V11.2082C25.5832 11.8491 25.3286 12.4638 24.8753 12.917C24.4221 13.3702 23.8074 13.6248 23.1665 13.6248H15.3123" stroke="#292929" stroke-width="1.38095"/>
</svg>
