<svg width="26" height="22" viewBox="0 0 26 22" fill="none" xmlns="http://www.w3.org/2000/svg">
<path d="M6.3335 9.66667C6.3335 8.95942 6.61445 8.28115 7.11454 7.78105C7.61464 7.28095 8.29292 7 9.00016 7H22.3335C23.0407 7 23.719 7.28095 24.2191 7.78105C24.7192 8.28115 25.0002 8.95942 25.0002 9.66667V17.6667C25.0002 18.3739 24.7192 19.0522 24.2191 19.5523C23.719 20.0524 23.0407 20.3333 22.3335 20.3333H9.00016C8.29292 20.3333 7.61464 20.0524 7.11454 19.5523C6.61445 19.0522 6.3335 18.3739 6.3335 17.6667V9.66667Z" stroke="black" stroke-width="1.52381" stroke-linecap="round" stroke-linejoin="round"/>
<path d="M19.6667 6.99984V4.33317C19.6667 3.62593 19.3857 2.94765 18.8856 2.44755C18.3855 1.94746 17.7072 1.6665 17 1.6665H3.66667C2.95942 1.6665 2.28115 1.94746 1.78105 2.44755C1.28095 2.94765 1 3.62593 1 4.33317V12.3332C1 13.0404 1.28095 13.7187 1.78105 14.2188C2.28115 14.7189 2.95942 14.9998 3.66667 14.9998H6.33333M13 13.6665C13 14.3737 13.281 15.052 13.781 15.5521C14.2811 16.0522 14.9594 16.3332 15.6667 16.3332C16.3739 16.3332 17.0522 16.0522 17.5523 15.5521C18.0524 15.052 18.3333 14.3737 18.3333 13.6665C18.3333 12.9593 18.0524 12.281 17.5523 11.7809C17.0522 11.2808 16.3739 10.9998 15.6667 10.9998C14.9594 10.9998 14.2811 11.2808 13.781 11.7809C13.281 12.281 13 12.9593 13 13.6665Z" stroke="black" stroke-width="1.52381" stroke-linecap="round" stroke-linejoin="round"/>
</svg>
