<svg width="44" height="44" viewBox="0 0 44 44" fill="none" xmlns="http://www.w3.org/2000/svg">
<rect width="44" height="44.0005" rx="22" fill="#007E8F" fill-opacity="0.1"/>
<path d="M23.5501 26H27.9351L25.9421 21.046L23.5501 26ZM28.7401 28H22.5841L20.9261 31.435C20.8107 31.674 20.6051 31.8573 20.3546 31.9447C20.104 32.0321 19.829 32.0164 19.5901 31.901C19.3511 31.7856 19.1678 31.5801 19.0804 31.3295C18.993 31.079 19.0087 30.804 19.1241 30.565L24.1411 20.177C24.3097 19.8281 24.5759 19.5357 24.9076 19.3354C25.2392 19.135 25.6219 19.0352 26.0091 19.0483C26.3964 19.0613 26.7715 19.1865 27.0889 19.4087C27.4063 19.631 27.6523 19.9406 27.7971 20.3L31.9531 30.627C32.052 30.8731 32.0491 31.1485 31.945 31.3924C31.8409 31.6364 31.6442 31.8291 31.3981 31.928C31.152 32.0269 30.8766 32.024 30.6326 31.9199C30.3887 31.8159 30.196 31.6191 30.0971 31.373L28.7401 28ZM13.0251 12H21.0251C21.2903 12 21.5447 12.1054 21.7322 12.2929C21.9197 12.4804 22.0251 12.7348 22.0251 13C22.0251 13.2652 21.9197 13.5196 21.7322 13.7071C21.5447 13.8946 21.2903 14 21.0251 14H13.0251C12.7599 14 12.5055 13.8946 12.318 13.7071C12.1304 13.5196 12.0251 13.2652 12.0251 13C12.0251 12.7348 12.1304 12.4804 12.318 12.2929C12.5055 12.1054 12.7599 12 13.0251 12ZM13.0251 17C12.7599 17 12.5055 16.8946 12.318 16.7071C12.1304 16.5196 12.0251 16.2652 12.0251 16C12.0251 15.7348 12.1304 15.4804 12.318 15.2929C12.5055 15.1054 12.7599 15 13.0251 15H20.0281C20.3783 15.0001 20.7224 15.0922 21.0259 15.267C21.3293 15.4419 21.5816 15.6933 21.7573 15.9963C21.9331 16.2992 22.0262 16.643 22.0274 16.9932C22.0286 17.3435 21.9378 17.6879 21.7641 17.992C20.8191 19.646 19.7711 20.836 18.5991 21.546C17.1271 22.439 15.2791 22.918 13.0621 22.999C12.9289 23.0073 12.7954 22.9888 12.6695 22.9447C12.5435 22.9006 12.4277 22.8318 12.3288 22.7422C12.2299 22.6526 12.1499 22.5442 12.0935 22.4232C12.0372 22.3023 12.0056 22.1713 12.0007 22.0379C11.9957 21.9046 12.0175 21.7716 12.0648 21.6468C12.112 21.522 12.1838 21.408 12.2758 21.3113C12.3678 21.2147 12.4782 21.1375 12.6006 21.0842C12.7229 21.0309 12.8547 21.0026 12.9881 21.001C14.8861 20.931 16.4071 20.537 17.5621 19.836C18.4091 19.323 19.2381 18.382 20.0281 17H13.0251Z" fill="#007E8F"/>
</svg>
