<svg width="42" height="42" viewBox="0 0 42 42" fill="none" xmlns="http://www.w3.org/2000/svg">
<path d="M29.75 15.75C29.75 22.5225 23.87 28 16.625 28L14.9975 29.96L14.035 31.1151C13.2125 32.0951 11.6375 31.885 11.095 30.7125L8.75 25.55C5.565 23.31 3.5 19.7575 3.5 15.75C3.5 8.9775 9.38 3.5 16.625 3.5C21.91 3.5 26.4775 6.42251 28.525 10.6225C29.3125 12.18 29.75 13.9125 29.75 15.75Z" stroke="#292D32" stroke-width="2.38" stroke-linecap="round" stroke-linejoin="round"/>
<path d="M38.4996 22.5045C38.4996 26.512 36.4346 30.0646 33.2496 32.3046L30.9046 37.467C30.3621 38.6395 28.7871 38.8671 27.9646 37.8696L25.3746 34.7545C21.1396 34.7545 17.3596 32.8821 14.9971 29.9596L16.6246 27.9996C23.8696 27.9996 29.7496 22.5221 29.7496 15.7496C29.7496 13.9121 29.3121 12.1796 28.5246 10.6221C34.2471 11.9346 38.4996 16.7645 38.4996 22.5045Z" stroke="#292D32" stroke-width="2.38" stroke-linecap="round" stroke-linejoin="round"/>
<path d="M12.25 15.75H21" stroke="#292D32" stroke-width="2.38" stroke-linecap="round" stroke-linejoin="round"/>
</svg>
