<svg width="31" height="31" viewBox="0 0 31 31" fill="none" xmlns="http://www.w3.org/2000/svg">
<path d="M28 13.9897V8.73975C28 4.36475 26.25 2.61475 21.875 2.61475H16.625C12.25 2.61475 10.5 4.36475 10.5 8.73975V10.1147H14.375C18.75 10.1147 20.5 11.8647 20.5 16.2397V20.1147H21.875C26.25 20.1147 28 18.3647 28 13.9897Z" stroke="#007E8F" stroke-width="1.5" stroke-linecap="round" stroke-linejoin="round"/>
<path d="M20.5 21.4897V16.2397C20.5 11.8647 18.75 10.1147 14.375 10.1147H9.125C4.75 10.1147 3 11.8647 3 16.2397V21.4897C3 25.8647 4.75 27.6147 9.125 27.6147H14.375C18.75 27.6147 20.5 25.8647 20.5 21.4897Z" stroke="#007E8F" stroke-width="1.5" stroke-linecap="round" stroke-linejoin="round"/>
<path d="M8.1001 18.8647L10.5376 21.3022L15.4001 16.4272" stroke="#007E8F" stroke-width="1.5" stroke-linecap="round" stroke-linejoin="round"/>
</svg>
