<svg width="23" height="18" viewBox="0 0 23 18" fill="none" xmlns="http://www.w3.org/2000/svg">
<path fill-rule="evenodd" clip-rule="evenodd" d="M9.34308 0.138672H13.6568C15.585 0.138672 17.1124 0.138672 18.3073 0.293615C19.5368 0.453621 20.5324 0.789837 21.3181 1.54734C22.1028 2.30585 22.4511 3.2669 22.6168 4.45378C22.7113 5.13533 22.7501 5.92827 22.7658 6.84679C22.7788 6.92383 22.7802 7.00228 22.77 7.07971C22.7763 7.65222 22.7787 8.27334 22.7773 8.94307V9.05649C22.7773 10.9178 22.7773 12.3923 22.6168 13.5458C22.4511 14.7327 22.1028 15.6937 21.3181 16.4522C20.5324 17.2097 19.5368 17.5459 18.3073 17.706C17.1114 17.8609 15.585 17.8609 13.6568 17.8609H9.34308C7.41491 17.8609 5.88748 17.8609 4.6926 17.706C3.4631 17.5459 2.46754 17.2097 1.68179 16.4522C0.897095 15.6937 0.548807 14.7327 0.383056 13.5458C0.222549 12.3913 0.222549 10.9178 0.222549 9.05649V8.94307C0.221151 8.27334 0.223598 7.65222 0.229893 7.07971C0.219314 7.00233 0.220374 6.92387 0.23304 6.84679C0.249825 5.92827 0.28864 5.13533 0.383056 4.45378C0.548807 3.2669 0.897095 2.30585 1.68179 1.54734C2.46754 0.789837 3.4631 0.453621 4.6926 0.293615C5.88852 0.138672 7.41491 0.138672 9.34308 0.138672ZM1.79824 7.73391C1.79684 8.12684 1.79614 8.5488 1.79614 8.99978C1.79614 10.931 1.79824 12.3032 1.94301 13.3443C2.08463 14.362 2.35109 14.9494 2.79484 15.3778C3.2386 15.8061 3.84705 16.0634 4.90241 16.2001C5.98084 16.3398 7.40127 16.3418 9.40183 16.3418H13.5981C15.5986 16.3418 17.0201 16.3398 18.0985 16.2001C19.1528 16.0634 19.7613 15.8061 20.205 15.3778C20.6488 14.9494 20.9153 14.362 21.0569 13.3432C21.2017 12.3022 21.2038 10.931 21.2038 8.99978C21.2038 8.5488 21.2031 8.12684 21.2017 7.73391H1.79824ZM21.1765 6.21486H1.82342C1.8444 5.62041 1.88006 5.10697 1.94301 4.65531C2.08463 3.63755 2.35109 3.05018 2.79484 2.62181C3.2386 2.19344 3.84705 1.93621 4.90241 1.7995C5.98084 1.65974 7.40127 1.65772 9.40183 1.65772H13.5981C15.5986 1.65772 17.0201 1.65974 18.0985 1.7995C19.1528 1.93621 19.7613 2.19344 20.205 2.62181C20.6488 3.05018 20.9153 3.63755 21.0569 4.65632C21.1198 5.10697 21.1555 5.62041 21.1765 6.21486ZM4.41879 13.0506C4.41879 12.8491 4.50168 12.656 4.64924 12.5135C4.79679 12.3711 4.99691 12.2911 5.20559 12.2911H9.40183C9.6105 12.2911 9.81062 12.3711 9.95817 12.5135C10.1057 12.656 10.1886 12.8491 10.1886 13.0506C10.1886 13.252 10.1057 13.4452 9.95817 13.5876C9.81062 13.7301 9.6105 13.8101 9.40183 13.8101H5.20559C4.99691 13.8101 4.79679 13.7301 4.64924 13.5876C4.50168 13.4452 4.41879 13.252 4.41879 13.0506ZM11.2377 13.0506C11.2377 12.8491 11.3206 12.656 11.4681 12.5135C11.6157 12.3711 11.8158 12.2911 12.0245 12.2911H13.5981C13.8067 12.2911 14.0069 12.3711 14.1544 12.5135C14.302 12.656 14.3849 12.8491 14.3849 13.0506C14.3849 13.252 14.302 13.4452 14.1544 13.5876C14.0069 13.7301 13.8067 13.8101 13.5981 13.8101H12.0245C11.8158 13.8101 11.6157 13.7301 11.4681 13.5876C11.3206 13.4452 11.2377 13.252 11.2377 13.0506Z" fill="#292929"/>
</svg>
