<svg width="44" height="44" viewBox="0 0 44 44" fill="none" xmlns="http://www.w3.org/2000/svg">
<rect width="43.25" height="43.25" rx="21.625" fill="#007E8F" fill-opacity="0.1"/>
<g clip-path="url(#clip0_319_4386)">
<path d="M20.5 12.625V11.125C20.5 10.8266 20.6185 10.5405 20.8295 10.3295C21.0405 10.1185 21.3266 10 21.625 10C21.9234 10 22.2095 10.1185 22.4205 10.3295C22.6315 10.5405 22.75 10.8266 22.75 11.125V12.625C22.75 12.9234 22.6315 13.2095 22.4205 13.4205C22.2095 13.6315 21.9234 13.75 21.625 13.75C21.3266 13.75 21.0405 13.6315 20.8295 13.4205C20.6185 13.2095 20.5 12.9234 20.5 12.625ZM28 21.625C28 22.8859 27.6261 24.1184 26.9256 25.1668C26.2251 26.2151 25.2295 27.0322 24.0646 27.5147C22.8997 27.9972 21.6179 28.1235 20.3813 27.8775C19.1447 27.6315 18.0088 27.0244 17.1172 26.1328C16.2256 25.2412 15.6185 24.1053 15.3725 22.8687C15.1265 21.6321 15.2528 20.3503 15.7353 19.1854C16.2178 18.0205 17.0349 17.0249 18.0832 16.3244C19.1316 15.6239 20.3641 15.25 21.625 15.25C23.3152 15.2517 24.9357 15.9239 26.1309 17.1191C27.3261 18.3143 27.9983 19.9348 28 21.625ZM25.75 21.625C25.75 20.8092 25.5081 20.0116 25.0548 19.3333C24.6016 18.6549 23.9573 18.1262 23.2036 17.814C22.4498 17.5018 21.6204 17.4201 20.8203 17.5793C20.0201 17.7384 19.2851 18.1313 18.7082 18.7082C18.1313 19.2851 17.7384 20.0201 17.5793 20.8203C17.4201 21.6204 17.5018 22.4498 17.814 23.2036C18.1262 23.9573 18.6549 24.6016 19.3333 25.0548C20.0116 25.5081 20.8092 25.75 21.625 25.75C22.7186 25.7488 23.7671 25.3138 24.5404 24.5404C25.3138 23.7671 25.7488 22.7186 25.75 21.625ZM14.4541 16.0459C14.5587 16.1506 14.6829 16.2336 14.8197 16.2902C14.9564 16.3469 15.1029 16.376 15.2509 16.376C15.3989 16.376 15.5455 16.3469 15.6822 16.2902C15.8189 16.2336 15.9432 16.1506 16.0478 16.0459C16.1525 15.9413 16.2355 15.8171 16.2921 15.6803C16.3487 15.5436 16.3779 15.3971 16.3779 15.2491C16.3779 15.1011 16.3487 14.9545 16.2921 14.8178C16.2355 14.6811 16.1525 14.5568 16.0478 14.4522L14.9228 13.3272C14.7115 13.1158 14.4248 12.9971 14.1259 12.9971C13.8271 12.9971 13.5404 13.1158 13.3291 13.3272C13.1177 13.5385 12.999 13.8252 12.999 14.1241C12.999 14.4229 13.1177 14.7096 13.3291 14.9209L14.4541 16.0459ZM14.4541 27.2022L13.3291 28.3272C13.2244 28.4318 13.1414 28.5561 13.0848 28.6928C13.0281 28.8295 12.999 28.9761 12.999 29.1241C12.999 29.2721 13.0281 29.4186 13.0848 29.5553C13.1414 29.6921 13.2244 29.8163 13.3291 29.9209C13.5404 30.1323 13.8271 30.251 14.1259 30.251C14.2739 30.251 14.4205 30.2219 14.5572 30.1652C14.6939 30.1086 14.8182 30.0256 14.9228 29.9209L16.0478 28.7959C16.2592 28.5846 16.3779 28.2979 16.3779 27.9991C16.3779 27.7002 16.2592 27.4135 16.0478 27.2022C15.8365 26.9908 15.5498 26.8721 15.2509 26.8721C14.9521 26.8721 14.6654 26.9908 14.4541 27.2022ZM28 16.375C28.1478 16.3751 28.2941 16.3461 28.4307 16.2897C28.5673 16.2332 28.6914 16.1504 28.7959 16.0459L29.9209 14.9209C30.0256 14.8163 30.1086 14.6921 30.1652 14.5553C30.2219 14.4186 30.251 14.2721 30.251 14.1241C30.251 13.9761 30.2219 13.8295 30.1652 13.6928C30.1086 13.5561 30.0256 13.4318 29.9209 13.3272C29.8163 13.2225 29.6921 13.1395 29.5553 13.0829C29.4186 13.0263 29.2721 12.9971 29.1241 12.9971C28.9761 12.9971 28.8295 13.0263 28.6928 13.0829C28.5561 13.1395 28.4318 13.2225 28.3272 13.3272L27.2022 14.4522C27.0439 14.6095 26.936 14.8104 26.8922 15.0292C26.8484 15.2481 26.8707 15.475 26.9562 15.6812C27.0418 15.8873 27.1867 16.0633 27.3725 16.1869C27.5584 16.3104 27.7768 16.3759 28 16.375ZM28.7959 27.2041C28.5846 26.9927 28.2979 26.874 27.9991 26.874C27.7002 26.874 27.4135 26.9927 27.2022 27.2041C26.9908 27.4154 26.8721 27.7021 26.8721 28.0009C26.8721 28.2998 26.9908 28.5865 27.2022 28.7978L28.3272 29.9228C28.5385 30.1342 28.8252 30.2529 29.1241 30.2529C29.4229 30.2529 29.7096 30.1342 29.9209 29.9228C30.1323 29.7115 30.251 29.4248 30.251 29.1259C30.251 28.8271 30.1323 28.5404 29.9209 28.3291L28.7959 27.2041ZM13.75 21.625C13.75 21.3266 13.6315 21.0405 13.4205 20.8295C13.2095 20.6185 12.9234 20.5 12.625 20.5H11.125C10.8266 20.5 10.5405 20.6185 10.3295 20.8295C10.1185 21.0405 10 21.3266 10 21.625C10 21.9234 10.1185 22.2095 10.3295 22.4205C10.5405 22.6315 10.8266 22.75 11.125 22.75H12.625C12.9234 22.75 13.2095 22.6315 13.4205 22.4205C13.6315 22.2095 13.75 21.9234 13.75 21.625ZM21.625 29.5C21.3266 29.5 21.0405 29.6185 20.8295 29.8295C20.6185 30.0405 20.5 30.3266 20.5 30.625V32.125C20.5 32.4234 20.6185 32.7095 20.8295 32.9205C21.0405 33.1315 21.3266 33.25 21.625 33.25C21.9234 33.25 22.2095 33.1315 22.4205 32.9205C22.6315 32.7095 22.75 32.4234 22.75 32.125V30.625C22.75 30.3266 22.6315 30.0405 22.4205 29.8295C22.2095 29.6185 21.9234 29.5 21.625 29.5ZM32.125 20.5H30.625C30.3266 20.5 30.0405 20.6185 29.8295 20.8295C29.6185 21.0405 29.5 21.3266 29.5 21.625C29.5 21.9234 29.6185 22.2095 29.8295 22.4205C30.0405 22.6315 30.3266 22.75 30.625 22.75H32.125C32.4234 22.75 32.7095 22.6315 32.9205 22.4205C33.1315 22.2095 33.25 21.9234 33.25 21.625C33.25 21.3266 33.1315 21.0405 32.9205 20.8295C32.7095 20.6185 32.4234 20.5 32.125 20.5Z" fill="#007E8F"/>
</g>
<defs>
<clipPath id="clip0_319_4386">
<rect width="23.25" height="23.25" fill="white" transform="translate(10 10)"/>
</clipPath>
</defs>
</svg>
