<svg width="44" height="45" viewBox="0 0 44 45" fill="none" xmlns="http://www.w3.org/2000/svg">
<rect y="0.25" width="44" height="44" rx="22" fill="#007E8F" fill-opacity="0.1"/>
<path d="M24 19.75C24 19.75 24.5 20.75 24.5 22.75C24.5 24.75 24 25.75 24 25.75M20 19.75C20 19.75 19.5 20.75 19.5 22.75C19.5 24.75 20 25.75 20 25.75M16 16.25C16 22.1087 14.6311 30.25 22 30.25C29.3689 30.25 28 22.1087 28 16.25M14 16.25H30M25 16.25V15.25C25 13.475 23.3627 13.25 22 13.25C20.6373 13.25 19 13.475 19 15.25V16.25" stroke="#007E8F" stroke-width="2" stroke-linecap="round" stroke-linejoin="round"/>
</svg>
