<svg width="56" height="56" viewBox="0 0 56 56" fill="none" xmlns="http://www.w3.org/2000/svg">
<circle cx="28" cy="28" r="28" fill="#007E8F" fill-opacity="0.2"/>
<path d="M37.8998 20.9289C37.8998 19.3733 36.6271 18.1006 35.0715 18.1006H30.8291V20.9289H35.0715V24.6763L30.1503 30.8279H25.1725V23.7572H19.5159C16.3907 23.7572 13.8594 26.2885 13.8594 29.4137V33.6561H16.6877C16.6877 36.0036 18.5826 37.8986 20.9301 37.8986C23.2776 37.8986 25.1725 36.0036 25.1725 33.6561H31.5079L37.8998 25.6662V20.9289ZM16.6877 30.8279V29.4137C16.6877 27.8582 17.9604 26.5854 19.5159 26.5854H22.3442V30.8279H16.6877ZM20.9301 35.0703C20.1523 35.0703 19.5159 34.4339 19.5159 33.6561H22.3442C22.3442 34.4339 21.7079 35.0703 20.9301 35.0703Z" fill="#007E8F"/>
<path d="M18.1016 19.5156H25.1723V22.3439H18.1016V19.5156ZM37.8995 29.4146C35.5521 29.4146 33.6571 31.3096 33.6571 33.657C33.6571 36.0045 35.5521 37.8995 37.8995 37.8995C40.247 37.8995 42.142 36.0045 42.142 33.657C42.142 31.3096 40.247 29.4146 37.8995 29.4146ZM37.8995 35.0712C37.1218 35.0712 36.4854 34.4348 36.4854 33.657C36.4854 32.8793 37.1218 32.2429 37.8995 32.2429C38.6773 32.2429 39.3137 32.8793 39.3137 33.657C39.3137 34.4348 38.6773 35.0712 37.8995 35.0712Z" fill="#007E8F"/>
</svg>
