<svg width="15" height="15" viewBox="0 0 15 15" fill="none" xmlns="http://www.w3.org/2000/svg">
<path d="M2.74273 9.25159L1.87263 8.38147C1.51772 8.02656 1.51772 7.44266 1.87263 7.08775L2.74273 6.21763C2.89156 6.0688 3.01178 5.77685 3.01178 5.57078V4.34002C3.01178 3.83627 3.42394 3.42413 3.92768 3.42413H5.15842C5.3645 3.42413 5.65645 3.30393 5.80528 3.1551L6.67538 2.28498C7.03029 1.93007 7.61419 1.93007 7.9691 2.28498L8.83922 3.1551C8.98805 3.30393 9.27998 3.42413 9.48606 3.42413H10.7168C11.2206 3.42413 11.6327 3.83627 11.6327 4.34002V5.57078C11.6327 5.77685 11.7529 6.0688 11.9017 6.21763L12.7719 7.08775C13.1268 7.44266 13.1268 8.02656 12.7719 8.38147L11.9017 9.25159C11.7529 9.40042 11.6327 9.69237 11.6327 9.89845V11.1291C11.6327 11.6329 11.2206 12.0451 10.7168 12.0451H9.48606C9.27998 12.0451 8.98805 12.1653 8.83922 12.3141L7.9691 13.1842C7.61419 13.5392 7.03029 13.5392 6.67538 13.1842L5.80528 12.3141C5.65645 12.1653 5.3645 12.0451 5.15842 12.0451H3.92768C3.42394 12.0451 3.01178 11.6329 3.01178 11.1291V9.89845C3.01178 9.68664 2.89156 9.3947 2.74273 9.25159Z" stroke="white" stroke-width="0.858658" stroke-linecap="round" stroke-linejoin="round"/>
<path d="M5.61133 9.44598L9.04596 6.01135" stroke="white" stroke-width="0.858658" stroke-linecap="round" stroke-linejoin="round"/>
<path d="M8.75671 9.15975H8.76185" stroke="white" stroke-width="1.14488" stroke-linecap="round" stroke-linejoin="round"/>
<path d="M5.8944 6.29757H5.89954" stroke="white" stroke-width="1.14488" stroke-linecap="round" stroke-linejoin="round"/>
</svg>
