<svg width="44" height="44" viewBox="0 0 44 44" fill="none" xmlns="http://www.w3.org/2000/svg">
<path d="M22.0313 5.88965C16.1359 5.88965 11.3448 10.6808 11.3448 16.5762V21.7235C11.3448 22.81 10.8817 24.4664 10.3295 25.3926L8.28129 28.7944C7.01672 30.8961 7.88945 33.2293 10.2049 34.013C17.8814 36.5778 26.1634 36.5778 33.8399 34.013C35.995 33.3006 36.939 30.7536 35.7635 28.7944L33.7152 25.3926C33.1809 24.4664 32.7178 22.81 32.7178 21.7235V16.5762C32.7178 10.6986 27.9089 5.88965 22.0313 5.88965Z" stroke="#007E8F" stroke-width="3.45848" stroke-miterlimit="10" stroke-linecap="round"/>
<path d="M25.3263 6.40604C24.7742 6.24574 24.2042 6.12106 23.6164 6.04982C21.9066 5.83609 20.268 5.96076 18.7363 6.40604C19.2528 5.08803 20.5352 4.16187 22.0313 4.16187C23.5274 4.16187 24.8098 5.08803 25.3263 6.40604Z" stroke="#007E8F" stroke-width="3.45848" stroke-miterlimit="10" stroke-linecap="round" stroke-linejoin="round"/>
<path d="M27.3745 34.6543C27.3745 37.5931 24.97 39.9976 22.0313 39.9976C20.5708 39.9976 19.2171 39.392 18.2553 38.4302C17.2936 37.4684 16.688 36.1148 16.688 34.6543" stroke="#007E8F" stroke-width="3.45848" stroke-miterlimit="10"/>
</svg>
