<svg width="54" height="54" viewBox="0 0 54 54" fill="none" xmlns="http://www.w3.org/2000/svg">
<path d="M27.3887 7.07776C20.112 7.07776 14.1982 12.9915 14.1982 20.2682V26.6216C14.1982 27.9626 13.6267 30.0071 12.9452 31.1503L10.417 35.3492C8.85612 37.9434 9.93334 40.8233 12.7913 41.7906C22.2664 44.9563 32.489 44.9563 41.9641 41.7906C44.6242 40.9112 45.7893 37.7675 44.3384 35.3492L41.8102 31.1503C41.1507 30.0071 40.5791 27.9626 40.5791 26.6216V20.2682C40.5791 13.0135 34.6434 7.07776 27.3887 7.07776Z" fill="#007E8F" stroke="#007E8F" stroke-width="4.26882" stroke-miterlimit="10" stroke-linecap="round"/>
<path d="M31.4558 7.71506C30.7742 7.5172 30.0708 7.36331 29.3453 7.27538C27.2348 7.01157 25.2123 7.16546 23.3217 7.71506C23.9592 6.08824 25.542 4.94507 27.3887 4.94507C29.2354 4.94507 30.8182 6.08824 31.4558 7.71506Z" stroke="#007E8F" stroke-width="4.26882" stroke-miterlimit="10" stroke-linecap="round" stroke-linejoin="round"/>
<path d="M33.9839 42.582C33.9839 46.2094 31.016 49.1772 27.3887 49.1772C25.586 49.1772 23.9152 48.4298 22.7281 47.2427C21.5409 46.0555 20.7935 44.3847 20.7935 42.582" stroke="#007E8F" stroke-width="4.26882" stroke-miterlimit="10"/>
</svg>
