<svg width="252" height="255" viewBox="0 0 252 255" fill="none" xmlns="http://www.w3.org/2000/svg">
<path d="M81.3697 248.612C99.0915 259.293 111.734 254.859 116.574 246.293C125.935 229.728 157.057 195.855 206.376 184.406C271.697 169.242 258.056 128.981 217.901 107.853C177.745 86.7257 147.72 57.4918 152.264 25.7052C156.809 -6.08141 111.784 -17.0393 91.7602 44.1074C78.8208 83.6228 55.6323 94.2091 40.8455 96.7539C26.9091 99.1521 11.6645 102.161 4.23054 114.191C-4.79013 128.786 -1.64235 143.551 36.1252 153.677C89.6455 168.028 41.6472 224.668 81.3697 248.612Z" fill="#CCE8EC"/>
<path d="M35.3246 179.353C36.0746 178.924 44.5395 175.34 86.6508 194.972C86.5281 195.139 86.476 195.218 86.476 195.218C86.476 195.218 42.6971 209.962 34.1195 191.799C31.558 186.392 32.292 182.668 35.2514 179.395L35.3246 179.353Z" fill="#006071"/>
<path d="M176.864 186.782C167.715 194.474 153.367 200.056 139.523 192.633C141.711 191.235 143.97 189.795 146.275 188.305C160.178 179.372 172.425 185.35 176.864 186.782Z" fill="#006071"/>
<path d="M193.252 92.1847C202.6 170.021 180.386 184.147 177.913 186.293C177.197 186.914 176.907 186.869 175.824 186.59L175.806 186.601C171.224 185.386 160.179 179.372 146.275 188.304C143.97 189.794 141.71 191.234 139.523 192.631C125.34 201.627 113.886 207.966 105.634 204.287C98.6352 200.716 92.3245 197.626 86.651 194.972C44.5396 175.34 36.0747 178.923 35.3247 179.353C36.1949 178.879 44.1781 174.454 54.9272 166.672C54.9637 166.651 55.0003 166.63 55.0082 166.601C69.3758 156.189 88.6171 139.78 102.448 118.672C111.863 104.319 121.074 67.9318 138.846 60.7922C175.371 47.1666 191.736 76.3524 193.252 92.1847Z" fill="#007E8F"/>
<path d="M152.866 90.8191C154 87.8253 153.889 85.0085 152.619 84.5275C151.349 84.0465 149.4 86.0835 148.267 89.0773C147.133 92.0711 147.243 94.888 148.514 95.369C149.784 95.8499 151.732 93.8129 152.866 90.8191Z" fill="white"/>
<path d="M176.122 94.6392C176.925 91.5403 176.511 88.7519 175.196 88.411C173.882 88.0701 172.165 90.3059 171.361 93.4047C170.558 96.5035 170.972 99.292 172.287 99.6329C173.601 99.9737 175.318 97.738 176.122 94.6392Z" fill="white"/>
<path d="M161.966 106.017C161.776 106.017 161.591 105.951 161.443 105.832C161.294 105.712 161.191 105.545 161.151 105.359C161.002 104.685 160.34 102.691 159.29 102.394C158.24 102.098 156.18 103.249 155.346 103.852C155.167 103.982 154.943 104.036 154.725 104.001C154.506 103.966 154.31 103.845 154.18 103.666C154.05 103.487 153.997 103.263 154.032 103.044C154.067 102.825 154.187 102.63 154.367 102.5C154.695 102.262 157.637 100.193 159.743 100.787C161.94 101.407 162.703 104.637 162.783 105.004C162.809 105.126 162.808 105.252 162.779 105.374C162.751 105.495 162.695 105.609 162.617 105.706C162.538 105.803 162.439 105.881 162.327 105.935C162.214 105.989 162.091 106.017 161.966 106.017H161.966Z" fill="white"/>
</svg>
