<svg width="18" height="18" viewBox="0 0 18 18" fill="none" xmlns="http://www.w3.org/2000/svg">
<path d="M9 7.24512V9.33762L10.05 10.3876" stroke="#292929" stroke-width="1.2" stroke-linecap="round" stroke-linejoin="round"/>
<path d="M4.125 9C4.125 6.3075 6.3075 4.125 9 4.125C11.6925 4.125 13.875 6.3075 13.875 9C13.875 10.56 13.14 11.955 12 12.8475H11.9925C11.1675 13.4925 10.1325 13.875 9 13.875C7.8825 13.875 6.855 13.5 6.03 12.8625H6.0225C4.8675 11.97 4.125 10.575 4.125 9Z" stroke="#292929" stroke-width="1.2" stroke-linecap="round" stroke-linejoin="round"/>
<path d="M6.02246 12.8627H6.02996C6.85496 13.5002 7.88246 13.8752 8.99996 13.8752C10.1325 13.8752 11.1675 13.4927 11.9925 12.8477H12L11.6175 14.7002C11.25 16.1252 10.425 16.5002 9.41246 16.5002H8.59496C7.58246 16.5002 6.74996 16.1252 6.38996 14.6927L6.02246 12.8627Z" stroke="#292929" stroke-width="1.2" stroke-linecap="round" stroke-linejoin="round"/>
<path d="M6.02246 5.1375H6.02996C6.85496 4.5 7.88246 4.125 8.99996 4.125C10.1325 4.125 11.1675 4.5075 11.9925 5.1525H12L11.6175 3.3C11.25 1.875 10.425 1.5 9.41246 1.5H8.59496C7.58246 1.5 6.74996 1.875 6.38996 3.3075L6.02246 5.1375Z" stroke="#292929" stroke-width="1.2" stroke-linecap="round" stroke-linejoin="round"/>
</svg>
