<svg width="42" height="42" viewBox="0 0 42 42" fill="none" xmlns="http://www.w3.org/2000/svg">
<path d="M29.75 32.253H22.75L14.9625 37.433C13.8075 38.203 12.25 37.3805 12.25 35.9805V32.253C7 32.253 3.5 28.753 3.5 23.503V13.0029C3.5 7.75293 7 4.25293 12.25 4.25293H29.75C35 4.25293 38.5 7.75293 38.5 13.0029V23.503C38.5 28.753 35 32.253 29.75 32.253Z" stroke="#292D32" stroke-width="2.38" stroke-miterlimit="10" stroke-linecap="round" stroke-linejoin="round"/>
<path d="M20.9997 19.8799V19.5125C20.9997 18.3225 21.7347 17.6924 22.4697 17.1849C23.1872 16.6949 23.9046 16.0649 23.9046 14.9099C23.9046 13.2999 22.6097 12.0049 20.9997 12.0049C19.3897 12.0049 18.0947 13.2999 18.0947 14.9099" stroke="#292D32" stroke-width="2.38" stroke-linecap="round" stroke-linejoin="round"/>
<path d="M20.9921 24.0625H21.0079" stroke="#292D32" stroke-width="2.38" stroke-linecap="round" stroke-linejoin="round"/>
</svg>
