<svg width="42" height="42" viewBox="0 0 42 42" fill="none" xmlns="http://www.w3.org/2000/svg">
<path d="M11.7246 16.2051L20.9996 21.5776L30.2046 16.2401" stroke="#292D32" stroke-width="2.38" stroke-linecap="round" stroke-linejoin="round"/>
<path d="M21 31.098V21.5605" stroke="#292D32" stroke-width="2.38" stroke-linecap="round" stroke-linejoin="round"/>
<path d="M18.83 11.0072L13.2299 14.1222C11.9699 14.8222 10.9199 16.5897 10.9199 18.0422V23.9747C10.9199 25.4272 11.9524 27.1948 13.2299 27.8948L18.83 31.0098C20.02 31.6748 21.9799 31.6748 23.1874 31.0098L28.7875 27.8948C30.0475 27.1948 31.0974 25.4272 31.0974 23.9747V18.0248C31.0974 16.5723 30.065 14.8047 28.7875 14.1047L23.1874 10.9897C21.9799 10.3247 20.02 10.3247 18.83 11.0072Z" stroke="#292D32" stroke-width="2.38" stroke-linecap="round" stroke-linejoin="round"/>
<path d="M38.5 26.25C38.5 33.0225 33.0225 38.5 26.25 38.5L28.0875 35.4375" stroke="#292D32" stroke-width="2.38" stroke-linecap="round" stroke-linejoin="round"/>
<path d="M3.5 15.75C3.5 8.9775 8.9775 3.5 15.75 3.5L13.9125 6.5625" stroke="#292D32" stroke-width="2.38" stroke-linecap="round" stroke-linejoin="round"/>
</svg>
