<svg width="33" height="33" viewBox="0 0 33 33" fill="none" xmlns="http://www.w3.org/2000/svg">
<path d="M25.8687 9.80763C25.8687 8.3354 24.6642 7.13086 23.192 7.13086H19.1768V9.80763H23.192V13.3543L18.5344 19.1763H13.8233V12.4844H8.46975C5.51192 12.4844 3.11621 14.8801 3.11621 17.8379V21.8531H5.79298C5.79298 24.0748 7.58641 25.8682 9.80813 25.8682C12.0298 25.8682 13.8233 24.0748 13.8233 21.8531H19.8192L25.8687 14.2912V9.80763ZM5.79298 19.1763V17.8379C5.79298 16.3657 6.99752 15.1612 8.46975 15.1612H11.1465V19.1763H5.79298ZM9.80813 23.1915C9.07202 23.1915 8.46975 22.5892 8.46975 21.8531H11.1465C11.1465 22.5892 10.5442 23.1915 9.80813 23.1915Z" fill="#007E8F"/>
<path d="M7.13184 8.46973H13.8238V11.1465H7.13184V8.46973ZM25.8692 17.8384C23.6475 17.8384 21.8541 19.6318 21.8541 21.8536C21.8541 24.0753 23.6475 25.8687 25.8692 25.8687C28.0909 25.8687 29.8844 24.0753 29.8844 21.8536C29.8844 19.6318 28.0909 17.8384 25.8692 17.8384ZM25.8692 23.1919C25.1331 23.1919 24.5308 22.5897 24.5308 21.8536C24.5308 21.1175 25.1331 20.5152 25.8692 20.5152C26.6053 20.5152 27.2076 21.1175 27.2076 21.8536C27.2076 22.5897 26.6053 23.1919 25.8692 23.1919Z" fill="#007E8F"/>
</svg>
