<svg width="189" height="42" viewBox="0 0 189 42" fill="none" xmlns="http://www.w3.org/2000/svg">
<g clip-path="url(#clip0_784_6237)">
<path d="M55.5686 1.94873L52.6452 2.92321C52.8678 3.48005 52.738 4.0833 52.6452 4.31531L50.9748 11.5543C50.752 12.5566 50.2323 12.9 50.0003 12.9464H48.6082H48.469C47.9121 12.9464 47.9585 12.2039 48.0513 11.8327L49.5827 5.15058L46.52 6.12506C46.8541 6.45916 46.8448 7.00672 46.7984 7.23874L45.5455 11.8327C45.4342 12.835 44.9423 13.0856 44.7103 13.0856H40.2555C39.6987 12.8629 39.7451 12.2503 39.8379 11.9719L41.3692 5.01137L38.3066 5.98584C38.7521 6.20858 38.6778 6.91392 38.585 7.23874L37.6105 10.9974C37.1651 12.8907 36.0328 13.0856 35.5224 12.9464L37.3321 5.01137L34.4087 5.98584C34.6314 6.09721 34.5943 6.86751 34.5479 7.23874L33.5734 11.2759C33.2393 12.835 32.0421 13.0392 31.4853 12.9464L33.295 5.01137L30.2324 5.98584C30.4551 6.31995 30.418 7.14593 30.3716 7.51716L28.9795 12.9464C28.3112 16.3988 25.9168 15.6842 24.8031 14.8953C22.5758 12.6377 23.7823 9.6855 24.6639 8.49164C23.5502 8.60301 22.9005 9.2805 22.7149 9.60533C20.7102 13.3919 22.4364 16.009 23.5501 16.8443C28.0049 19.5171 30.5107 16.1018 31.2067 14.0601C33.2114 15.7306 34.6406 14.5705 35.1046 13.7817C35.8007 15.1738 36.9144 14.8953 37.4712 14.8953C37.9167 14.8953 38.2137 14.6169 38.3065 14.4777C38.6406 14.9232 39.0953 15.0345 39.2809 15.0345H45.6846C46.0187 15.0345 46.3807 14.6633 46.5199 14.4777C46.5199 14.7004 46.8911 14.9417 47.0767 15.0345H51.1139C52.3389 14.7004 52.9236 13.5032 53.0628 12.9464L55.5686 1.94873Z" fill="white" stroke="white" stroke-width="0.289655"/>
<path fill-rule="evenodd" clip-rule="evenodd" d="M166.945 5.98614L169.869 5.15088L168.476 11.5546C168.031 14.3388 166.501 15.0348 165.791 15.0348H148.43C147.539 15.0348 147.131 14.6636 147.038 14.478C145.367 16.1485 143.372 15.0813 142.583 14.3388C142.249 14.7843 141.702 14.8956 141.47 14.8956H117.386C116.495 15.1184 115.808 14.246 115.576 13.782C114.574 15.1184 113.21 15.2669 112.653 15.1741C110.426 14.9513 110.518 11.833 110.843 10.3017C112.514 4.73325 117.386 4.91886 119.614 5.70772L117.943 11.9722C117.609 12.8632 118.082 13.0859 118.361 13.0859H139.521C140.523 12.9745 140.773 12.297 140.773 11.9722L142.166 5.4293C149.822 3.75877 148.987 10.8585 148.569 11.9722C148.235 12.8632 148.801 12.9931 149.126 12.9467H157.757C155.753 9.38289 154.416 8.21352 153.999 8.07431C152.328 7.40609 151.632 8.90957 151.493 9.74484C150.24 7.79588 150.657 6.82141 151.075 6.12535C151.493 5.4293 153.72 4.45482 155.53 5.98614C156.978 7.2112 159.381 11.1369 160.402 12.9467C161.609 12.9931 164.189 13.0581 164.857 12.9467C165.525 12.8353 165.878 12.1578 165.971 11.833L166.945 7.79588C167.168 7.12767 167.038 6.31097 166.945 5.98614ZM113.209 10.5256C113.82 8.72665 115.617 7.79286 116.691 7.51576C116.691 8.62945 115.995 10.7176 114.881 12.1097C113.994 13.2185 112.752 11.8701 113.209 10.5256ZM144.248 7.23846L143.134 12.25C143.413 12.7605 144.248 13.5865 145.362 12.8069C145.687 12.5285 146.364 11.5818 146.476 10.0227C146.615 8.07372 145.501 6.96004 144.248 7.23846Z" fill="white"/>
<path fill-rule="evenodd" clip-rule="evenodd" d="M113.761 34.3836H108.471C108.193 34.3836 107.636 34.2166 107.636 33.5484V32.5739H113.483H113.901C114.086 32.5739 114.458 32.379 114.458 31.5994C114.469 31.5137 114.48 31.4276 114.491 31.3411C114.904 28.1986 115.374 24.624 111.256 24.082C109.632 23.8964 106.077 24.0264 104.852 26.031C103.627 28.0356 103.413 32.3418 103.46 34.2443C103.46 35.1724 103.599 37.1677 106.523 37.7246C108.101 37.9566 111.507 38.17 112.509 37.1677C113.511 36.1654 113.761 34.894 113.761 34.3836ZM110.698 30.0681H108.053C108.1 29.14 108.471 27.3117 109.585 27.4231C110.142 27.3767 111.144 27.8407 110.698 30.0681Z" fill="white"/>
<path fill-rule="evenodd" clip-rule="evenodd" d="M72.5583 34.3836H67.2683C66.9899 34.3836 66.4331 34.2166 66.4331 33.5484V32.5739H72.2799H72.6976C72.8832 32.5739 73.2544 32.379 73.2544 31.5994C73.2656 31.5137 73.2769 31.4276 73.2883 31.3411C73.7014 28.1986 74.1712 24.624 70.0525 24.082C68.4284 23.8964 64.8739 24.0264 63.6488 26.031C62.4238 28.0356 62.2103 32.3418 62.2567 34.2443C62.2567 35.1724 62.3962 37.1677 65.3196 37.7246C66.8974 37.9566 70.3035 38.17 71.3057 37.1677C72.3078 36.1654 72.5583 34.894 72.5583 34.3836ZM69.4954 30.0681H66.8504C66.8968 29.14 67.268 27.3117 68.3817 27.4231C68.9385 27.3767 69.9409 27.8407 69.4954 30.0681Z" fill="white"/>
<path fill-rule="evenodd" clip-rule="evenodd" d="M29.1247 34.3836H23.8347C23.5563 34.3836 22.9995 34.2166 22.9995 33.5484V32.5739H28.8463H29.264C29.4496 32.5739 29.8208 32.379 29.8208 31.5994C29.832 31.5137 29.8433 31.4276 29.8547 31.3411C30.2678 28.1986 30.7377 24.624 26.619 24.082C24.9948 23.8964 21.4403 24.0264 20.2153 26.031C18.9902 28.0356 18.7767 32.3418 18.8231 34.2443C18.8231 35.1724 18.9626 37.1677 21.886 37.7246C23.4638 37.9566 26.8699 38.17 27.8721 37.1677C28.8742 36.1654 29.1247 34.894 29.1247 34.3836ZM26.062 30.0681H23.417C23.4634 29.14 23.8346 27.3117 24.9483 27.4231C25.5051 27.3767 26.5074 27.8407 26.062 30.0681Z" fill="white"/>
<path d="M7.95768 37.5869L9.34978 26.8677L10.8811 34.3851C11.1038 36.9465 12.6444 37.5869 13.3869 37.5869H16.5887L18.8161 20.1855H14.5006L13.1085 30.0695L11.0203 20.1855H6.00872L3.50293 37.5869H7.95768Z" fill="white"/>
<path fill-rule="evenodd" clip-rule="evenodd" d="M43.0408 24.5009L40.9526 38.5612C40.8134 39.6749 39.6997 41.8744 36.3587 41.763H30.2334C30.2334 40.603 30.6789 38.2549 32.4608 38.1436H35.5929C36.1266 38.1436 37.1661 37.8095 37.0547 36.473H34.6881C33.0176 36.6586 29.6766 35.6377 31.6255 28.538C31.6394 28.4854 31.653 28.4335 31.6664 28.3823C32.3287 25.8621 32.528 25.1037 34.9666 24.3617C37.4735 23.5988 40.0658 24.0305 41.808 24.3207C42.2909 24.4011 42.7085 24.4707 43.0408 24.5009ZM38.0187 27.5628H38.3087L37.6127 33.2704H37.4687C36.4698 33.2704 35.3833 32.8671 35.5245 31.8783C35.6359 31.0987 35.8494 29.4189 35.9422 28.6765C36.0718 27.7688 37.1018 27.5628 38.0187 27.5628Z" fill="white"/>
<path d="M47.6349 37.5877H43.3193L44.9899 24.6411C48.3309 23.6388 51.8576 24.1307 53.2033 24.5019C60.4423 22.8314 61.5096 26.126 61.1383 27.9822L59.8854 37.5877H55.5699L56.8228 28.9566C56.9342 28.0657 56.4052 27.7502 56.1267 27.7037H55.013L53.7601 37.5877H49.4446L50.5583 28.9566C50.781 27.9543 50.2799 27.7037 50.0015 27.7037H49.027L47.6349 37.5877Z" fill="white"/>
<path d="M76.3118 21.4385H80.4881H80.6274L80.2098 24.3619H82.994L82.7156 27.5638H79.6529L78.9569 32.8538C78.7341 33.8561 79.3281 34.2923 79.6529 34.3851H81.8803C81.7411 38.0046 79.9312 37.8654 76.8686 37.7261C74.4185 37.6148 74.27 35.1739 74.502 33.9675L76.3118 21.4385Z" fill="white"/>
<path d="M93.2947 37.5869H88.5615L90.9281 20.1855H95.6613L94.6868 26.8677H97.7494L98.5847 20.1855H103.318L100.951 37.5869H96.3573L97.1926 30.7656H94.2692L93.2947 37.5869Z" fill="white"/>
<path d="M178.075 19.3511H175.43C174.874 19.3511 174.549 19.9079 174.456 20.1863L174.178 22.1353C174.178 22.9149 174.827 23.1098 175.152 23.1098H177.658C178.326 22.887 178.493 22.3673 178.493 22.1353L178.772 20.4648C178.772 19.5738 178.307 19.3511 178.075 19.3511Z" fill="white"/>
<path d="M173.899 24.3627H178.075L176.266 37.5877H171.95L173.899 24.3627Z" fill="white"/>
<path d="M127.822 19.3511H125.177C124.62 19.3511 124.295 19.9079 124.202 20.1863L123.924 22.1353C123.924 22.9149 124.573 23.1098 124.898 23.1098H127.404C128.072 22.887 128.239 22.3673 128.239 22.1353L128.518 20.4648C128.518 19.5738 128.054 19.3511 127.822 19.3511Z" fill="white"/>
<path d="M123.645 24.3627H127.822L126.012 37.5877H121.696L123.645 24.3627Z" fill="white"/>
<path d="M184.061 27.5649H188.516C189.324 25.948 187.727 24.2919 185.939 24.0211C185.704 23.9855 185.471 23.9616 185.242 23.9478C182.383 23.7758 178.664 25.518 179.213 28.3289C179.464 29.611 180.487 30.8001 181.627 31.7791C182.638 32.646 183.861 34.247 182.53 34.247H178.493C177.713 37.0312 179.56 37.7273 180.581 37.7273C185.815 38.3955 187.263 36.7531 187.541 35.9177C188.933 32.4376 185.685 29.8851 183.783 28.8178C183.226 28.1496 183.736 27.7041 184.061 27.5649Z" fill="white"/>
<path fill-rule="evenodd" clip-rule="evenodd" d="M144.802 37.5887L144.245 41.765H139.93L142.296 24.5029C144.477 24.1317 149.257 23.6398 150.927 24.6421C152.663 25.6835 152.571 27.1095 152.491 28.3607C152.475 28.6148 152.459 28.8618 152.459 29.0968C152.459 30.4889 151.902 37.0318 148.978 37.3102C146.64 37.533 145.22 37.5887 144.802 37.5887ZM146.194 27.5666L145.219 34.3879H146.89C147.075 34.3879 147.363 34.1095 147.586 32.9958C147.809 31.8821 148.05 29.4691 148.143 28.4018C148.189 27.9842 147.864 27.2325 146.194 27.5666Z" fill="white"/>
<path fill-rule="evenodd" clip-rule="evenodd" d="M161.372 24.083C162.81 24.1294 165.548 25.2524 164.991 29.373C164.918 29.9167 164.853 30.4325 164.793 30.9209C164.278 35.059 164.008 37.2276 160.397 37.7257C156.36 38.2825 153.437 37.1688 153.437 33.967C153.437 30.7651 153.854 24.083 158.587 24.083H161.372ZM160.675 28.5362C160.721 29.6963 160.536 32.2948 159.979 33.6869C159.933 33.9189 159.673 34.2437 159.005 34.2437C158.169 34.2437 157.613 34.2437 157.752 32.8516C157.863 31.738 158.216 29.5106 158.448 28.3969C158.453 28.3816 158.458 28.3661 158.463 28.3505C158.598 27.9395 158.767 27.4278 159.84 27.5616C160.644 27.6619 160.675 28.1185 160.675 28.5362Z" fill="white"/>
<path fill-rule="evenodd" clip-rule="evenodd" d="M136.17 24.0835C137.609 24.1299 140.347 25.2529 139.79 29.3735C139.716 29.9172 139.652 30.433 139.591 30.9214C139.077 35.0594 138.807 37.2281 135.196 37.7262C131.159 38.283 128.235 37.1693 128.235 33.9675C128.235 30.7656 128.653 24.0835 133.386 24.0835H136.17ZM135.474 28.5367C135.52 29.6968 135.446 32.3232 134.778 33.5482C134.732 33.7802 134.472 34.2443 133.803 34.2443C132.968 34.2443 132.411 34.2443 132.551 32.8522C132.662 31.7385 133.154 29.2327 133.386 28.119C133.396 28.0894 133.405 28.0605 133.414 28.0324C133.531 27.6641 133.604 27.433 134.639 27.5621C135.443 27.6624 135.474 28.1191 135.474 28.5367Z" fill="white"/>
<path d="M168.19 19.7666H172.367L170 37.5856H165.685L168.19 19.7666Z" fill="white"/>
<path d="M117.936 19.7666H122.113L119.746 37.5856H115.431L117.936 19.7666Z" fill="white"/>
<rect x="168.403" y="0.695801" width="2.46583" height="2.46583" rx="1.23292" transform="rotate(45 168.403 0.695801)" fill="white"/>
<rect x="156.152" y="16.0103" width="2.46583" height="2.46583" rx="1.23292" transform="rotate(45 156.152 16.0103)" fill="white"/>
<rect x="119.122" y="1.25049" width="2.46583" height="2.46583" rx="1.23292" transform="rotate(45 119.122 1.25049)" fill="white"/>
<rect x="115.501" y="1.25049" width="2.46583" height="2.46583" rx="1.23292" transform="rotate(45 115.501 1.25049)" fill="white"/>
<rect x="83.9082" y="15.7329" width="2.46583" height="2.46583" rx="1.23292" transform="rotate(45 83.9082 15.7329)" fill="white"/>
<rect x="80.7002" y="15.7329" width="2.46583" height="2.46583" rx="1.23292" transform="rotate(45 80.7002 15.7329)" fill="white"/>
<rect x="46.5977" y="15.7329" width="2.46583" height="2.46583" rx="1.23292" transform="rotate(45 46.5977 15.7329)" fill="white"/>
<rect x="43.3906" y="15.7329" width="2.46583" height="2.46583" rx="1.23292" transform="rotate(45 43.3906 15.7329)" fill="white"/>
<path fill-rule="evenodd" clip-rule="evenodd" d="M94.8257 9.32764C93.0438 10.1072 92.784 12.0655 92.8768 12.9471L92.8768 13.0861H90.7886C90.3431 13.0861 90.3246 12.5292 90.371 12.2508L92.5983 1.94922L89.6749 2.78448C89.8977 3.11859 89.8605 3.85177 89.8141 4.17659L88.2828 10.9979C88.1714 12.5571 87.4011 13.0397 87.0299 13.0861H85.3594C84.9139 12.9747 84.9881 12.2972 85.081 11.9724L86.6123 5.15107L83.6888 6.12554C83.9116 6.68239 83.8745 7.19283 83.8281 7.37844L82.8536 11.5548C82.6308 12.7798 82.2039 13.0861 82.0183 13.0861H77.2852C76.8397 13.0861 76.8211 12.5292 76.8675 12.2508L78.2596 6.26475C77.0346 5.15107 74.965 5.15107 74.0833 5.29028C68.7376 7.51765 69.0717 12.0652 69.907 14.0606C71.5775 15.8425 73.4801 14.6174 74.2225 13.7821C73.9998 16.455 72.1808 16.5664 71.2991 16.2879C71.1878 17.0675 72.3664 17.5408 72.9697 17.68C75.4198 18.0141 76.1251 15.9631 76.1715 14.8958H82.7144C82.9372 14.8958 83.3641 14.7102 83.5497 14.6174C83.8838 14.8401 84.2457 14.8958 84.385 14.8958H88.0044C88.784 14.7845 88.9789 14.6638 88.9789 14.6174C89.2017 14.8401 89.6286 14.9886 89.8142 15.035H103.735C104.515 14.0327 105.174 12.6685 105.406 12.1116C106.009 10.0699 106.074 5.84737 101.508 5.29052C96.9418 4.73368 95.1506 7.74992 94.8257 9.32764ZM73.6665 11.2753C74.0006 11.3867 74.3626 12.4354 74.5018 12.9459L75.6154 7.37742C73.3724 7.37776 72.7551 8.62829 72.2227 9.70699C72.1934 9.76639 72.1643 9.82528 72.1352 9.88341C71.7365 10.6807 71.3001 13.0856 72.4137 12.9459C73.1125 12.8581 73.5273 11.7394 73.6665 11.2753ZM101.091 13.085C101.759 9.63255 99.1421 8.76944 97.75 8.76944C98.446 7.65576 101.509 7.09891 102.901 8.76944C104.014 10.1059 102.901 12.2033 102.205 13.085H101.091ZM97.6104 10.9993C97.4712 11.2313 96.8865 11.6119 95.6615 11.2777C95.2903 11.6026 94.7705 12.4193 95.6615 13.0875H98.4456C98.8633 12.2986 99.1974 10.7209 97.1927 10.7209C97.2856 10.8137 97.4991 10.9993 97.6104 10.9993Z" fill="white"/>
<rect x="65.666" y="16.0103" width="2.46583" height="2.46583" rx="1.23292" transform="rotate(45 65.666 16.0103)" fill="white"/>
<path fill-rule="evenodd" clip-rule="evenodd" d="M70.0462 5.00977L66.9835 5.98424C67.0763 6.26266 67.2341 6.95872 67.1227 7.51556L66.0091 11.8311C65.9627 12.1559 65.7028 12.8334 65.0346 12.9448L62.1112 13.084C61.9255 13.0376 61.61 12.7499 61.8327 11.9703L63.0857 6.26266C61.7864 5.38099 58.5753 4.31371 56.1252 7.09793C53.675 9.88214 54.269 12.9912 54.8723 14.1977C55.4755 14.8473 57.1553 15.6733 59.0485 13.78C59.0485 14.4297 58.7423 15.8404 57.5172 16.2858L56.1251 16.4251C56.4499 16.9355 57.4337 17.9007 58.7701 17.678C59.4662 17.6315 60.914 17.0097 61.1367 14.8937H65.8699C66.4267 14.9401 67.6518 14.6153 68.0972 12.9448L70.0462 5.00977ZM60.5799 7.37648L59.327 12.8057C59.2342 12.3881 58.9372 11.525 58.4917 11.4136C58.4464 11.5799 58.3715 11.8003 58.2574 12.0219C57.7817 12.9462 56.5527 12.3495 56.6735 11.317C56.785 10.3635 57.3254 9.16494 58.6309 7.79411C58.863 7.56209 59.5776 7.15374 60.5799 7.37648Z" fill="white"/>
</g>
<defs>
<clipPath id="clip0_784_6237">
<rect width="188.276" height="42" fill="white" transform="matrix(-1 0 0 1 188.531 0)"/>
</clipPath>
</defs>
</svg>
