<svg width="261" height="223" viewBox="0 0 261 223" fill="none" xmlns="http://www.w3.org/2000/svg">
<path d="M176.684 9.33156C176.684 9.33156 140.959 54.5834 83.799 27.591C26.6387 0.598625 -30.5217 73.6369 18.6997 118.095C67.9211 162.553 19.7543 186.982 53.1934 214.229C91.1991 245.197 124.287 182.4 154.455 196.69C221.037 228.229 270.364 215.744 259.249 179.225C239.739 115.12 214.791 110.95 233.845 77.6063C252.898 44.2628 210.847 -25.0666 176.684 9.33156Z" fill="#CCE8EC"/>
<path d="M157.234 134.485L154.412 149.638L140.969 221.669L116.753 217.147L132.28 133.939L133.018 129.974L157.234 134.485Z" fill="#006071"/>
<path d="M216.872 98.2483L208.522 143.014C208.497 143.146 208.447 143.271 208.374 143.383C208.302 143.494 208.207 143.591 208.097 143.666C207.987 143.742 207.863 143.795 207.733 143.822C207.602 143.85 207.467 143.851 207.336 143.827L90.0249 121.947L103.832 47.916L192.914 64.5309C209.06 67.5415 219.784 82.6343 216.872 98.2483Z" fill="#007E8F"/>
<path d="M128.889 83.2256L120.605 127.644L59.0273 116.159L67.3119 71.7408C70.3621 55.3865 86.6199 44.6994 103.624 47.8707C120.627 51.042 131.939 66.8709 128.889 83.2256Z" fill="#006071"/>
<path d="M157.556 103.99C153.018 103.143 150.024 98.7331 150.879 94.1532C151.734 89.5734 156.115 86.538 160.653 87.3849C162.1 87.6566 163.448 88.3066 164.562 89.2688C165.676 90.2309 166.515 91.4708 166.994 92.8625L224.314 103.553L222.765 111.856L165.446 101.165C164.497 102.291 163.268 103.145 161.882 103.641C160.496 104.137 159.004 104.257 157.556 103.99Z" fill="#006071"/>
<path d="M126.846 84.0415L118.775 127.319L60.7666 116.499L68.8389 73.2223C71.8107 57.2885 87.2059 46.7929 103.224 49.7805C119.242 52.7681 129.818 68.1076 126.846 84.0415Z" fill="#006071"/>
<path d="M159.181 99.7955C161.514 99.7955 163.404 97.9048 163.404 95.5725C163.404 93.2403 161.514 91.3496 159.181 91.3496C156.849 91.3496 154.958 93.2403 154.958 95.5725C154.958 97.9048 156.849 99.7955 159.181 99.7955Z" fill="white"/>
<path d="M224.976 103.525L219.913 130.672C219.891 130.789 219.823 130.892 219.725 130.959C219.627 131.027 219.507 131.052 219.39 131.03L206.08 128.548C206.057 128.544 206.036 128.53 206.023 128.511C206.01 128.492 206.005 128.468 206.009 128.445L211.138 100.944C211.143 100.921 211.156 100.9 211.175 100.887C211.195 100.874 211.218 100.869 211.242 100.873L224.905 103.421C224.928 103.426 224.949 103.439 224.962 103.458C224.975 103.478 224.98 103.501 224.976 103.525Z" fill="#006071"/>
<path d="M120.664 127.672C120.023 129.294 108.302 177.623 70.3735 170.549C28.7823 163.507 58.8662 116.146 58.8662 116.146L120.664 127.672Z" fill="#007E8F"/>
<path d="M157.234 134.485L154.412 149.638L132.28 133.939L133.018 129.974L157.234 134.485Z" fill="#006071"/>
<g clip-path="url(#clip0_310_4438)">
<path d="M88.0294 99.0064C88.7195 99.4461 89.5005 99.7232 90.3134 99.8169C91.1263 99.9106 91.9498 99.8183 92.7219 99.547C93.4958 99.2812 94.1992 98.843 94.7789 98.2655C95.3587 97.6881 95.7996 96.9864 96.0685 96.2135C93.5266 97.5018 90.8225 98.4412 88.0294 99.0064ZM95.1831 82.6391L95.4526 83.4148C95.7761 84.3459 96.3567 85.1642 97.1238 85.7657L99.0042 87.2401C100.721 88.5874 100.689 91.2398 98.9409 92.4607C94.3749 95.6547 89.0117 97.5179 83.4489 97.8427C81.3205 97.9684 79.6511 95.9071 80.1626 93.7857L80.7239 91.4631C80.9524 90.5087 80.902 89.5087 80.5787 88.5821L80.3092 87.8064C78.8294 83.5466 80.9595 78.9366 85.0661 77.51C89.1727 76.0833 93.7033 78.3794 95.1831 82.6391Z" fill="white"/>
</g>
<defs>
<clipPath id="clip0_310_4438">
<rect width="27.9947" height="27.9947" fill="white" transform="translate(71.0781 79.8994) rotate(-19.1573)"/>
</clipPath>
</defs>
</svg>
