<svg width="242" height="266" viewBox="0 0 242 266" fill="none" xmlns="http://www.w3.org/2000/svg">
<path d="M230.315 96.2738C230.315 96.2738 192.379 123.582 226.282 193.199C256.392 255.027 173.573 272.551 139.596 262.425C95.5812 249.308 75.3091 190.11 39.2615 204.758C3.21385 219.406 -22.8959 134.698 29.9078 109.567C95.5943 78.3051 57.8479 52.7918 66.0676 26.0053C71.9671 6.78046 131.849 -18.0326 159.208 19.5281C182.23 51.134 195.909 41.9473 208.095 39.2043C225.67 35.2484 260.028 67.9956 230.315 96.2738Z" fill="#CCE8EC"/>
<path d="M230.77 120.66L230.51 122.277C230.293 123.625 229.55 124.831 228.444 125.631C227.338 126.431 225.96 126.758 224.612 126.542L224.494 126.523C223.359 126.34 222.196 126.543 221.189 127.099C220.183 127.655 219.392 128.532 218.942 129.59L182.448 215.418C181.396 217.899 179.542 219.956 177.184 221.26C174.826 222.564 172.099 223.04 169.438 222.613L67.6628 206.261C64.9427 205.83 62.453 204.479 60.6101 202.432C58.7671 200.386 57.6827 197.769 57.5383 195.018L52.4843 102.99C52.4199 101.817 51.956 100.702 51.1698 99.8286C50.3835 98.9557 49.3222 98.378 48.1622 98.1917C47.495 98.0845 46.8554 97.8469 46.28 97.4925C45.7045 97.1381 45.2045 96.6738 44.8085 96.1262C44.4125 95.5786 44.1283 94.9583 43.972 94.3008C43.8157 93.6433 43.7905 92.9615 43.8977 92.2942L44.1576 90.6768C44.2648 90.0096 44.5023 89.37 44.8567 88.7946C45.2111 88.2191 45.6753 87.7191 46.2229 87.3231C46.7706 86.9271 47.3908 86.6428 48.0483 86.4865C48.7058 86.3302 49.3876 86.305 50.0548 86.4122L93.1676 93.339C93.8297 93.4454 94.5084 93.3582 95.1221 93.0878C95.7358 92.8174 96.2583 92.3754 96.6266 91.8149L126.738 45.9973C127.136 45.3879 127.702 44.9068 128.368 44.612C129.034 44.3173 129.771 44.2215 130.49 44.3362C131.012 44.4169 131.51 44.6099 131.951 44.9016C132.367 45.1737 132.725 45.525 133.005 45.9356C133.285 46.3461 133.481 46.8078 133.582 47.2942C133.684 47.7807 133.688 48.2824 133.596 48.7706C133.503 49.2588 133.315 49.7239 133.043 50.1394L106.502 90.5144C106.183 90.9996 105.991 91.5571 105.942 92.1358C105.894 92.7145 105.991 93.2961 106.226 93.8276C106.46 94.359 106.823 94.8234 107.283 95.1784C107.742 95.5334 108.283 95.7677 108.857 95.8599L166.236 105.078C166.81 105.17 167.397 105.118 167.945 104.924C168.493 104.731 168.984 104.404 169.373 103.972C169.762 103.541 170.036 103.019 170.171 102.454C170.307 101.889 170.298 101.299 170.147 100.738L157.568 54.0801C157.314 53.111 157.453 52.0808 157.955 51.2134C158.456 50.346 159.28 49.7115 160.246 49.4479C160.756 49.3087 161.289 49.2816 161.811 49.3686C162.529 49.4848 163.199 49.8066 163.739 50.2951C164.279 50.7835 164.666 51.4178 164.853 52.1214L179.097 105.065C179.271 105.713 179.629 106.296 180.127 106.745C180.625 107.195 181.242 107.49 181.904 107.596L226.505 114.762C227.172 114.869 227.812 115.107 228.387 115.461C228.963 115.816 229.463 116.28 229.859 116.828C230.255 117.375 230.539 117.996 230.695 118.653C230.852 119.311 230.877 119.992 230.77 120.66V120.66Z" fill="#007E8F"/>
<path d="M95.6779 108.053L84.4388 106.247C84.3477 106.232 84.2621 106.294 84.2474 106.385L70.8524 189.752C70.8378 189.843 70.8998 189.929 70.9908 189.943L82.2299 191.749C82.321 191.764 82.4067 191.702 82.4213 191.611L95.8163 108.244C95.831 108.153 95.769 108.067 95.6779 108.053Z" fill="#DEE9FF"/>
<path d="M188.716 122.736L177.477 120.93C177.386 120.915 177.3 120.977 177.286 121.068L163.891 204.435C163.876 204.526 163.938 204.612 164.029 204.626L175.268 206.432C175.359 206.447 175.445 206.385 175.459 206.294L188.854 122.927C188.869 122.836 188.807 122.75 188.716 122.736Z" fill="#DEE9FF"/>
<path d="M118.822 111.796L107.587 109.986C107.496 109.971 107.41 110.033 107.395 110.124L93.97 193.463C93.9553 193.554 94.0172 193.639 94.1083 193.654L105.344 195.464C105.435 195.479 105.52 195.417 105.535 195.326L118.96 111.987C118.975 111.896 118.913 111.811 118.822 111.796Z" fill="#DEE9FF"/>
<path d="M142.218 115.264L130.979 113.458C130.888 113.444 130.802 113.505 130.787 113.597L117.393 196.963C117.378 197.054 117.44 197.14 117.531 197.155L128.77 198.96C128.861 198.975 128.947 198.913 128.961 198.822L142.356 115.455C142.371 115.364 142.309 115.279 142.218 115.264Z" fill="#DEE9FF"/>
<path d="M165.467 119L154.228 117.194C154.137 117.179 154.051 117.241 154.036 117.332L140.642 200.699C140.627 200.79 140.689 200.876 140.78 200.89L152.019 202.696C152.11 202.711 152.196 202.649 152.21 202.558L165.605 119.191C165.62 119.1 165.558 119.014 165.467 119Z" fill="#DEE9FF"/>
</svg>
