<svg width="20" height="20" viewBox="0 0 20 20" fill="none" xmlns="http://www.w3.org/2000/svg">
<path d="M10.231 2.88283C7.6741 2.88283 5.59611 4.96082 5.59611 7.51775V9.75024C5.59611 10.2215 5.39526 10.9399 5.15579 11.3416L4.26743 12.817C3.71896 13.7285 4.09748 14.7405 5.10172 15.0804C8.43113 16.1928 12.0232 16.1928 15.3526 15.0804C16.2873 14.7714 16.6967 13.6667 16.1869 12.817L15.2985 11.3416C15.0668 10.9399 14.8659 10.2215 14.8659 9.75024V7.51775C14.8659 4.96854 12.7802 2.88283 10.231 2.88283Z" stroke="#007E8F" stroke-width="1.5" stroke-miterlimit="10" stroke-linecap="round"/>
<path d="M11.66 3.10688C11.4205 3.03735 11.1733 2.98328 10.9184 2.95238C10.1768 2.85968 9.4661 2.91376 8.80176 3.10688C9.02578 2.53524 9.58197 2.13354 10.2309 2.13354C10.8797 2.13354 11.4359 2.53524 11.66 3.10688Z" stroke="#007E8F" stroke-width="1.5" stroke-miterlimit="10" stroke-linecap="round" stroke-linejoin="round"/>
<path d="M12.5485 15.3585C12.5485 16.6331 11.5056 17.676 10.231 17.676C9.5976 17.676 9.0105 17.4133 8.59336 16.9962C8.17622 16.5791 7.91357 15.992 7.91357 15.3585" stroke="#007E8F" stroke-width="1.5" stroke-miterlimit="10"/>
</svg>
