<svg width="23" height="23" viewBox="0 0 23 23" fill="none" xmlns="http://www.w3.org/2000/svg">
<path d="M11.5191 2.83276C8.36302 2.83276 5.79815 5.39764 5.79815 8.55367V11.3092C5.79815 11.8909 5.55024 12.7776 5.25466 13.2734L4.15816 15.0946C3.48118 16.2197 3.94839 17.4687 5.18792 17.8883C9.29743 19.2613 13.7311 19.2613 17.8407 17.8883C18.9944 17.5069 19.4997 16.1434 18.8704 15.0946L17.7739 13.2734C17.4879 12.7776 17.24 11.8909 17.24 11.3092V8.55367C17.24 5.40717 14.6655 2.83276 11.5191 2.83276Z" fill="#007E8F" stroke="#007E8F" stroke-width="1.85146" stroke-miterlimit="10" stroke-linecap="round"/>
<path d="M13.283 3.10929C12.9874 3.02347 12.6823 2.95673 12.3676 2.91859C11.4523 2.80417 10.5751 2.87092 9.75507 3.10929C10.0316 2.40371 10.7181 1.9079 11.519 1.9079C12.3199 1.9079 13.0064 2.40371 13.283 3.10929Z" stroke="#007E8F" stroke-width="1.85146" stroke-miterlimit="10" stroke-linecap="round" stroke-linejoin="round"/>
<path d="M14.3795 18.2316C14.3795 19.8048 13.0923 21.092 11.5191 21.092C10.7372 21.092 10.0126 20.7678 9.4977 20.253C8.98281 19.7381 8.65863 19.0134 8.65863 18.2316" stroke="#007E8F" stroke-width="1.85146" stroke-miterlimit="10"/>
</svg>
