<svg width="315" height="314" viewBox="0 0 315 314" fill="none" xmlns="http://www.w3.org/2000/svg">
<rect x="0.867188" width="314" height="314" rx="148" fill="#F6F6F6"/>
<path d="M210.044 169.79L203.028 158.117C201.476 155.572 200.11 150.666 200.11 147.686V136.075C200.11 113.536 181.793 95.2197 159.317 95.2197C136.778 95.2818 118.461 113.536 118.461 136.075V147.624C118.461 150.604 117.095 155.51 115.605 158.055L108.589 169.728C105.919 174.261 105.298 179.414 106.974 183.885C108.651 188.417 112.438 192.019 117.406 193.633C124.111 195.868 130.879 197.483 137.771 198.662C138.454 198.787 139.137 198.849 139.82 198.973C140.689 199.097 141.621 199.221 142.552 199.345C144.167 199.594 145.781 199.78 147.457 199.904C151.369 200.277 155.343 200.463 159.317 200.463C163.228 200.463 167.14 200.277 170.99 199.904C172.418 199.78 173.846 199.656 175.212 199.47C176.329 199.345 177.447 199.221 178.565 199.035C179.248 198.973 179.931 198.849 180.614 198.724C187.568 197.607 194.46 195.868 201.166 193.633C205.946 192.019 209.61 188.417 211.348 183.823C213.087 179.166 212.59 174.075 210.044 169.79ZM163.849 144.582C163.849 147.189 161.738 149.3 159.13 149.3C156.523 149.3 154.411 147.189 154.411 144.582V125.334C154.411 122.726 156.523 120.615 159.13 120.615C161.738 120.615 163.849 122.726 163.849 125.334V144.582Z" fill="#007E8F"/>
<path d="M176.767 206.735C174.159 213.938 167.267 219.091 159.196 219.091C154.29 219.091 149.447 217.105 146.032 213.565C144.045 211.703 142.555 209.219 141.686 206.673C142.493 206.798 143.3 206.86 144.17 206.984C145.598 207.17 147.088 207.356 148.578 207.481C152.117 207.791 155.718 207.977 159.32 207.977C162.859 207.977 166.398 207.791 169.875 207.481C171.179 207.356 172.483 207.294 173.725 207.108C174.718 206.984 175.712 206.86 176.767 206.735Z" fill="#007E8F"/>
</svg>
