<svg width="20" height="20" viewBox="0 0 20 20" fill="none" xmlns="http://www.w3.org/2000/svg">
<path d="M10.231 3.02032C7.6741 3.02032 5.59611 5.09831 5.59611 7.65525V9.88773C5.59611 10.3589 5.39526 11.0774 5.15579 11.4791L4.26743 12.9545C3.71896 13.866 4.09748 14.878 5.10172 15.2179C8.43113 16.3303 12.0232 16.3303 15.3526 15.2179C16.2873 14.9089 16.6967 13.8042 16.1869 12.9545L15.2985 11.4791C15.0668 11.0774 14.8659 10.3589 14.8659 9.88773V7.65525C14.8659 5.10604 12.7802 3.02032 10.231 3.02032Z" stroke="#007E8F" stroke-width="1.5" stroke-miterlimit="10" stroke-linecap="round"/>
<path d="M11.66 3.24433C11.4205 3.17481 11.1733 3.12073 10.9184 3.08983C10.1768 2.99713 9.4661 3.05121 8.80176 3.24433C9.02578 2.67269 9.58197 2.271 10.2309 2.271C10.8797 2.271 11.4359 2.67269 11.66 3.24433Z" stroke="#007E8F" stroke-width="1.5" stroke-miterlimit="10" stroke-linecap="round" stroke-linejoin="round"/>
<path d="M12.5485 15.496C12.5485 16.7706 11.5056 17.8134 10.231 17.8134C9.5976 17.8134 9.0105 17.5508 8.59336 17.1336C8.17622 16.7165 7.91357 16.1294 7.91357 15.496" stroke="#007E8F" stroke-width="1.5" stroke-miterlimit="10"/>
</svg>
