<svg width="21" height="21" viewBox="0 0 21 21" fill="none" xmlns="http://www.w3.org/2000/svg">
<g clip-path="url(#clip0_1277_5299)">
<path d="M15.2687 4.2333C15.6499 4.04893 15.914 3.65986 15.914 3.2083C15.914 2.90662 15.7941 2.61729 15.5808 2.40397C15.3675 2.19064 15.0781 2.0708 14.7765 2.0708C14.4748 2.0708 14.1855 2.19064 13.9721 2.40397C13.7588 2.61729 13.639 2.90662 13.639 3.2083C13.639 3.66611 13.9093 4.0583 14.2983 4.23955C13.8483 6.67705 13.1577 8.49111 10.5874 8.87861C10.5874 8.87861 11.2796 12.3396 14.5171 12.3396C17.7546 12.3396 18.0827 8.91299 18.0827 8.91299C15.4562 9.04736 15.2343 5.7458 15.2687 4.2333Z" fill="#F19534"/>
<path d="M5.92822 4.2333C5.54697 4.04893 5.28291 3.65986 5.28291 3.2083C5.28291 2.90662 5.40275 2.61729 5.61608 2.40397C5.8294 2.19064 6.11873 2.0708 6.42041 2.0708C6.72209 2.0708 7.01142 2.19064 7.22474 2.40397C7.43807 2.61729 7.55791 2.90662 7.55791 3.2083C7.55791 3.66611 7.2876 4.0583 6.89854 4.23955C7.34854 6.67705 8.03916 8.49111 10.6095 8.87861C10.6095 8.87861 9.91728 12.3396 6.67979 12.3396C3.44229 12.3396 3.11572 8.91455 3.11572 8.91455C5.74072 9.04736 5.9626 5.7458 5.92822 4.2333Z" fill="#F19534"/>
<path d="M14.4736 12.3396C14.4877 12.3396 14.5018 12.3411 14.5158 12.3411C15.408 12.3411 16.0783 12.0802 16.5814 11.7036L14.4736 12.3396Z" fill="#FFCA28"/>
<path d="M19.1314 3.45978C18.6111 3.38946 18.1142 3.88478 18.0236 4.5629C17.9673 4.98634 18.0814 5.38165 18.3017 5.63634L17.9267 7.19103C17.9267 7.19103 17.3532 10.8645 14.4564 11.5895C12.1407 12.1691 11.3017 7.93009 11.0986 6.62071C11.5392 6.40196 11.8439 5.94884 11.8439 5.42228C11.8439 4.68321 11.2454 4.08478 10.5064 4.08478C9.7673 4.08478 9.16886 4.68321 9.16886 5.42228C9.16886 5.95196 9.47824 6.40977 9.92668 6.6254C9.76574 7.91759 9.05636 12.016 6.55636 11.5879C4.01886 11.152 2.91105 6.87852 2.6548 5.71602C2.95949 5.46602 3.1298 5.0254 3.0673 4.55196C2.97668 3.87228 2.43918 3.38478 1.8673 3.46134C1.29543 3.5379 0.906365 4.1504 0.99699 4.82853C1.06261 5.32228 1.36574 5.71446 1.74543 5.8629L3.73293 18.2113C3.73293 18.2113 5.4673 19.5816 10.5064 19.5816C15.5454 19.5816 17.2798 18.2113 17.2798 18.2113L19.272 5.83009C19.5939 5.66134 19.847 5.28165 19.9095 4.81603C20.0017 4.13634 19.6532 3.53009 19.1314 3.45978Z" fill="#FFCA28"/>
<path d="M10.5688 16.4367C11.4093 16.4367 12.0906 15.6245 12.0906 14.6227C12.0906 13.6208 11.4093 12.8086 10.5688 12.8086C9.72824 12.8086 9.04688 13.6208 9.04688 14.6227C9.04688 15.6245 9.72824 16.4367 10.5688 16.4367Z" fill="#26A69A"/>
<path d="M10.5689 13.2567C10.6283 13.3223 10.6814 13.4427 10.5689 13.677C10.4564 13.9114 9.85016 14.2286 9.73922 14.2927C9.62828 14.3583 9.55484 14.3286 9.52047 14.302C9.35641 14.1708 9.41891 13.8739 9.52516 13.6926C9.75328 13.3005 10.2361 12.8958 10.5689 13.2567Z" fill="#69F0AE"/>
<path d="M10.4563 15.299C10.2844 15.3818 9.72033 15.6334 9.90627 15.9318C10.0156 16.1084 10.2422 16.1834 10.45 16.1927C10.6578 16.2021 10.8625 16.1365 11.0469 16.0412C11.9219 15.588 11.9922 14.3974 11.8219 14.3068C11.6469 14.213 11.5281 14.4552 11.4375 14.5584C11.162 14.867 10.8286 15.1186 10.4563 15.299Z" fill="#00796B"/>
<path d="M18.9514 13.138C19.1952 11.7895 18.2889 11.452 18.2889 11.452C18.2889 11.452 17.7045 11.3458 17.4295 12.863C17.1545 14.3786 17.7389 14.4849 17.7389 14.4849C17.7389 14.4849 18.7061 14.4864 18.9514 13.138Z" fill="#26A69A"/>
<path d="M18.5483 11.9134C18.7608 12.1977 18.5092 12.6181 18.1014 12.8977C17.9811 12.9806 17.8217 12.9493 17.7983 12.8806C17.7327 12.6837 17.7608 12.4602 17.8483 12.2712C18.1077 11.704 18.4405 11.7696 18.5483 11.9134Z" fill="#69F0AE"/>
<path d="M2.02497 13.179C1.77966 11.8321 2.68747 11.4931 2.68747 11.4931C2.68747 11.4931 3.27185 11.3868 3.54685 12.904C3.82185 14.4196 3.23747 14.5259 3.23747 14.5259C3.23747 14.5259 2.26872 14.5274 2.02497 13.179Z" fill="#26A69A"/>
<path d="M2.96545 11.9502C3.17483 12.1064 3.08889 12.3111 2.93108 12.4533C2.75139 12.6173 2.61389 12.797 2.46077 12.983C2.43733 13.0111 2.41077 13.0423 2.37327 13.0502C2.30139 13.0658 2.24358 12.9923 2.22014 12.922C2.15295 12.7252 2.16545 12.4939 2.26545 12.3127C2.54983 11.7955 2.8842 11.8892 2.96545 11.9502Z" fill="#69F0AE"/>
<path d="M16.1235 14.4436C16.0157 15.0576 15.5235 15.4842 15.0219 15.3967C14.5204 15.3092 14.4516 14.7857 14.5594 14.1717C14.6672 13.5576 14.9094 13.0873 15.4094 13.1748C15.911 13.2623 16.2313 13.8311 16.1235 14.4436ZM5.25473 14.4436C5.36254 15.0576 5.85473 15.4842 6.35629 15.3967C6.85785 15.3092 6.9266 14.7857 6.81879 14.1717C6.71098 13.5576 6.46879 13.0873 5.96879 13.1748C5.46879 13.2623 5.14848 13.8311 5.25473 14.4436Z" fill="#F44336"/>
<path d="M5.98142 14.0347C5.86735 14.1628 5.58923 14.4206 5.49079 14.2237C5.35642 13.955 5.54235 13.5487 5.75485 13.4144C5.96735 13.28 6.14079 13.3862 6.17048 13.5066C6.20642 13.6597 6.08298 13.9191 5.98142 14.0347ZM14.872 14.4269C14.7174 14.4034 14.7002 13.8706 15.1158 13.4519C15.3142 13.2519 15.5986 13.4894 15.5267 13.8097C15.458 14.1144 15.1549 14.4706 14.872 14.4269Z" fill="#FFA8A4"/>
<path d="M17.5547 16.1709C16.6188 16.6396 14.4719 17.8881 10.5078 17.8881C6.54375 17.8881 4.39688 16.6396 3.46094 16.1709C3.46094 16.1709 3.125 16.3506 3.125 16.5381V17.9771C3.125 18.1693 3.22656 18.3459 3.39219 18.4443C4.12344 18.8756 6.35156 19.8943 10.5094 19.8943C14.6672 19.8943 16.8953 18.8756 17.6266 18.4443C17.7079 18.3964 17.7753 18.3281 17.8221 18.2462C17.869 18.1643 17.8937 18.0715 17.8938 17.9771V16.5381C17.8906 16.3506 17.5547 16.1709 17.5547 16.1709Z" fill="#FFCA28"/>
<path d="M6.6874 18.1448C7.1249 18.2308 7.25771 18.2683 7.22803 18.512C7.16709 18.9917 6.17178 18.8777 5.58271 18.723C4.36553 18.4027 4.11865 18.0652 4.11865 17.7636C4.11865 17.487 4.33115 17.4542 4.65928 17.5698C5.05146 17.7089 5.65771 17.9433 6.6874 18.1448Z" fill="#FFF59D"/>
<path d="M17.5547 16.4863C17.5547 16.4863 14.9656 17.952 10.5078 17.952C6.05 17.952 3.46094 16.4863 3.46094 16.4863" stroke="#F19534" stroke-width="4" stroke-miterlimit="10" stroke-linecap="round"/>
<path d="M4.71429 8.57111C5.54554 7.97736 5.99241 6.9133 6.03147 5.21955C6.0346 5.06642 6.07835 5.02111 6.16116 5.01174C6.29397 4.99767 6.31585 5.11799 6.31429 5.20392C6.27679 7.03205 6.04397 8.17424 5.1221 8.81799C5.07679 8.84924 4.75335 9.04611 4.61585 8.91017C4.45179 8.7508 4.66116 8.60861 4.71429 8.57111ZM5.47522 3.25392C5.44866 2.97111 5.51429 2.46174 6.25647 2.23049C6.47366 2.1633 6.60804 2.26955 6.63304 2.35236C6.69554 2.55861 6.51429 2.63986 6.43147 2.66642C5.86116 2.8508 5.83304 3.13517 5.71585 3.31642C5.59866 3.49767 5.4846 3.33986 5.47522 3.25392ZM12.7221 8.19611C13.4737 7.52892 13.9721 6.78361 14.3002 5.08674C14.3299 4.93674 14.3737 4.89611 14.4549 4.89924C14.5877 4.90236 14.594 5.0258 14.5799 5.11017C14.3018 6.91955 14.0377 7.43517 13.1112 8.46174C13.0065 8.57736 12.7518 8.68205 12.608 8.56174C12.4783 8.45392 12.6283 8.28049 12.7221 8.19611ZM13.8283 3.26799C13.8018 2.98517 13.8674 2.4758 14.6096 2.24455C14.8268 2.17736 14.9612 2.28361 14.9862 2.36642C15.0487 2.57267 14.8674 2.65392 14.7846 2.68049C14.2143 2.86486 14.1862 3.14924 14.069 3.33049C13.9533 3.51174 13.8377 3.35392 13.8283 3.26799Z" fill="#FFCA28"/>
<path d="M5.43584 12.0161C3.62021 11.1926 3.08584 9.04419 2.80146 8.11138C2.76396 7.98794 2.78271 7.87075 2.90615 7.83325C3.02959 7.79575 3.10302 7.87544 3.14209 7.99888C3.34834 8.67544 4.1499 10.9348 5.80459 11.577C5.9249 11.6239 6.1124 11.7379 6.01084 11.9333C5.94365 12.0598 5.72802 12.1489 5.43584 12.0161ZM2.48115 4.67388C2.39365 4.49263 2.35771 4.32075 1.88115 4.12232C1.76084 4.07232 1.68115 3.96138 1.71396 3.83638C1.74677 3.71138 1.87177 3.61763 2.05302 3.64888C2.64209 3.75044 2.77021 4.34888 2.79521 4.55669C2.81865 4.75669 2.57021 4.85513 2.48115 4.67388ZM15.6358 12.0161C17.4515 11.1926 17.9858 9.04419 18.2702 8.11138C18.3077 7.98794 18.289 7.87075 18.1655 7.83325C18.0421 7.79575 17.9686 7.87544 17.9296 7.99888C17.7233 8.67544 16.9218 10.9348 15.2671 11.577C15.1468 11.6239 14.9593 11.7379 15.0608 11.9333C15.128 12.0598 15.3436 12.1489 15.6358 12.0161ZM18.5905 4.67388C18.678 4.49263 18.714 4.32075 19.1905 4.12232C19.3108 4.07232 19.3905 3.96138 19.3577 3.83638C19.3249 3.71138 19.1999 3.61763 19.0186 3.64888C18.4296 3.75044 18.3015 4.34888 18.2765 4.55669C18.253 4.75669 18.503 4.85513 18.5905 4.67388ZM9.77802 5.44263C9.87333 5.24732 10.0405 4.98013 10.5858 4.86763C10.7952 4.82388 10.8561 4.73325 10.8374 4.59575C10.7999 4.30982 10.4436 4.33013 10.2515 4.37544C9.61084 4.52544 9.46865 5.09419 9.44208 5.31919C9.41552 5.53325 9.68427 5.63794 9.77802 5.44263Z" fill="#FFF59D"/>
</g>
<defs>
<clipPath id="clip0_1277_5299">
<rect width="20" height="20" fill="white" transform="translate(0.5 0.825439)"/>
</clipPath>
</defs>
</svg>
