<svg width="56" height="56" viewBox="0 0 56 56" fill="none" xmlns="http://www.w3.org/2000/svg">
<circle cx="28" cy="28" r="28" fill="#007E8F" fill-opacity="0.2"/>
<g clip-path="url(#clip0_317_4292)">
<path d="M36.3636 20.5758H34.3115V21.5995C34.3115 22.7289 33.3936 23.6516 32.2594 23.6516C31.13 23.6516 30.2073 22.7337 30.2073 21.5995V20.5758H26.1079V21.5995C26.1079 22.7289 25.1899 23.6516 24.0558 23.6516C22.9264 23.6516 22.0036 22.7337 22.0036 21.5995V20.5758H19.9612C19.9612 30.8268 18.9375 39.0304 18.9375 39.0304H37.392C37.3872 39.0304 36.3636 30.8268 36.3636 20.5758ZM24.0606 22.6279C24.6277 22.6279 25.0842 22.1714 25.0842 21.6043V19.5522C25.0842 17.8509 26.4587 16.4764 28.16 16.4764C29.8612 16.4764 31.2357 17.8509 31.2357 19.5522V21.6043C31.2357 22.1714 31.6923 22.6279 32.2594 22.6279C32.8265 22.6279 33.283 22.1714 33.283 21.6043V19.5522C33.2878 16.7215 30.9906 14.4243 28.16 14.4243C25.3293 14.4243 23.0321 16.7215 23.0321 19.5522V21.6043C23.0369 22.1666 23.4935 22.6279 24.0606 22.6279Z" fill="#007E8F"/>
</g>
<defs>
<clipPath id="clip0_317_4292">
<rect width="24.6061" height="24.6061" fill="white" transform="translate(16.1211 14.4243)"/>
</clipPath>
</defs>
</svg>
