<svg width="38" height="38" viewBox="0 0 38 38" fill="none" xmlns="http://www.w3.org/2000/svg">
<path d="M28.7217 34.2312C27.3283 34.6429 25.6817 34.8329 23.75 34.8329H14.25C12.3183 34.8329 10.6717 34.6429 9.27832 34.2312C9.62665 30.1145 13.8542 26.8687 19 26.8687C24.1458 26.8687 28.3733 30.1145 28.7217 34.2312Z" stroke="#292D32" stroke-width="2.375" stroke-linecap="round" stroke-linejoin="round"/>
<path d="M23.7498 3.1665H14.2498C6.33317 3.1665 3.1665 6.33317 3.1665 14.2498V23.7498C3.1665 29.7348 4.9715 33.0123 9.27817 34.2315C9.62651 30.1148 13.854 26.869 18.9998 26.869C24.1457 26.869 28.3732 30.1148 28.7215 34.2315C33.0282 33.0123 34.8332 29.7348 34.8332 23.7498V14.2498C34.8332 6.33317 31.6665 3.1665 23.7498 3.1665ZM18.9998 22.4356C15.8648 22.4356 13.3315 19.8865 13.3315 16.7515C13.3315 13.6165 15.8648 11.0832 18.9998 11.0832C22.1348 11.0832 24.6682 13.6165 24.6682 16.7515C24.6682 19.8865 22.1348 22.4356 18.9998 22.4356Z" stroke="#292D32" stroke-width="2.375" stroke-linecap="round" stroke-linejoin="round"/>
<path d="M24.6682 16.7519C24.6682 19.8869 22.1349 22.436 18.9999 22.436C15.8649 22.436 13.3315 19.8869 13.3315 16.7519C13.3315 13.6169 15.8649 11.0835 18.9999 11.0835C22.1349 11.0835 24.6682 13.6169 24.6682 16.7519Z" stroke="#292D32" stroke-width="2.375" stroke-linecap="round" stroke-linejoin="round"/>
</svg>
