<svg width="38" height="38" viewBox="0 0 38 38" fill="none" xmlns="http://www.w3.org/2000/svg">
<path d="M19 23.75C21.6234 23.75 23.75 21.6234 23.75 19C23.75 16.3766 21.6234 14.25 19 14.25C16.3766 14.25 14.25 16.3766 14.25 19C14.25 21.6234 16.3766 23.75 19 23.75Z" stroke="#292D32" stroke-width="2.375" stroke-miterlimit="10" stroke-linecap="round" stroke-linejoin="round"/>
<path d="M3.1665 20.3934V17.6068C3.1665 15.9601 4.51234 14.5984 6.17484 14.5984C9.04067 14.5984 10.2123 12.5718 8.7715 10.0859C7.94817 8.66094 8.439 6.80844 9.87984 5.9851L12.619 4.4176C13.8698 3.67344 15.4848 4.11677 16.229 5.3676L16.4032 5.66844C17.8282 8.15427 20.1715 8.15427 21.6123 5.66844L21.7865 5.3676C22.5307 4.11677 24.1457 3.67344 25.3965 4.4176L28.1357 5.9851C29.5765 6.80844 30.0673 8.66094 29.244 10.0859C27.8032 12.5718 28.9748 14.5984 31.8407 14.5984C33.4873 14.5984 34.849 15.9443 34.849 17.6068V20.3934C34.849 22.0401 33.5032 23.4018 31.8407 23.4018C28.9748 23.4018 27.8032 25.4284 29.244 27.9143C30.0673 29.3551 29.5765 31.1918 28.1357 32.0151L25.3965 33.5826C24.1457 34.3268 22.5307 33.8834 21.7865 32.6326L21.6123 32.3318C20.1873 29.8459 17.844 29.8459 16.4032 32.3318L16.229 32.6326C15.4848 33.8834 13.8698 34.3268 12.619 33.5826L9.87984 32.0151C8.439 31.1918 7.94817 29.3393 8.7715 27.9143C10.2123 25.4284 9.04067 23.4018 6.17484 23.4018C4.51234 23.4018 3.1665 22.0401 3.1665 20.3934Z" stroke="#292D32" stroke-width="2.375" stroke-miterlimit="10" stroke-linecap="round" stroke-linejoin="round"/>
</svg>
