<svg width="24" height="24" viewBox="0 0 24 24" fill="none" xmlns="http://www.w3.org/2000/svg">
<g clip-path="url(#clip0_225_3165)">
<path d="M19.4154 6.47358H17.4732V7.44239C17.4732 8.51127 16.6045 9.38457 15.5311 9.38457C14.4622 9.38457 13.5889 8.51582 13.5889 7.44239V6.47358H9.70909V7.44239C9.70909 8.51127 8.84034 9.38457 7.76691 9.38457C6.69804 9.38457 5.82474 8.51582 5.82474 7.44239V6.47358H3.89166C3.89166 16.1753 2.92285 23.9395 2.92285 23.9395H20.3888C20.3842 23.9395 19.4154 16.1753 19.4154 6.47358ZM7.77146 8.41575C8.30817 8.41575 8.74027 7.98365 8.74027 7.44694V5.50477C8.74027 3.89463 10.0411 2.59378 11.6513 2.59378C13.2614 2.59378 14.5622 3.89463 14.5622 5.50477V7.44694C14.5622 7.98365 14.9943 8.41575 15.5311 8.41575C16.0678 8.41575 16.4999 7.98365 16.4999 7.44694V5.50477C16.5044 2.82575 14.3303 0.651611 11.6513 0.651611C8.97224 0.651611 6.7981 2.82575 6.7981 5.50477V7.44694C6.80265 7.97911 7.23475 8.41575 7.77146 8.41575Z" fill="#828282"/>
</g>
<defs>
<clipPath id="clip0_225_3165">
<rect width="23.2879" height="23.2879" fill="white" transform="translate(0.257812 0.651611)"/>
</clipPath>
</defs>
</svg>
