<svg width="22" height="22" viewBox="0 0 22 22" fill="none" xmlns="http://www.w3.org/2000/svg">
<path d="M19.2866 5.60586C16.2747 5.30738 13.2448 5.15363 10.2238 5.15363C8.43301 5.15363 6.64217 5.24407 4.85133 5.42496L3.00623 5.60586" stroke="#007E8F" stroke-width="1.3567" stroke-linecap="round" stroke-linejoin="round"/>
<path d="M7.98077 4.69236L8.17976 3.50751C8.32447 2.64827 8.43301 2.0061 9.96155 2.0061L12.3312 2.0061C13.8598 2.0061 13.9774 2.68445 14.113 3.51656L14.312 4.69236" stroke="#007E8F" stroke-width="1.3567" stroke-linecap="round" stroke-linejoin="round"/>
<path d="M17.342 8.46405L16.7541 17.572C16.6546 18.992 16.5732 20.0955 14.0498 20.0955H8.24312C5.71966 20.0955 5.63826 18.992 5.53877 17.572L4.95087 8.46405" stroke="#007E8F" stroke-width="1.3567" stroke-linecap="round" stroke-linejoin="round"/>
<path d="M9.63599 15.1208H12.6479" stroke="#007E8F" stroke-width="1.3567" stroke-linecap="round" stroke-linejoin="round"/>
<path d="M8.88525 11.503H13.4076" stroke="#007E8F" stroke-width="1.3567" stroke-linecap="round" stroke-linejoin="round"/>
</svg>
