<svg width="24" height="25" viewBox="0 0 24 25" fill="none" xmlns="http://www.w3.org/2000/svg">
<path d="M15 2.62158V12.6216C15 13.7216 14.1 14.6216 13 14.6216H2V8.24158C2.73 9.11158 3.85003 9.65158 5.09003 9.62158C6.10003 9.60158 7.01 9.21158 7.69 8.56158C8 8.30158 8.26002 7.97157 8.46002 7.61157C8.82002 7.00157 9.02 6.28156 9 5.53156C8.97 4.36156 8.45001 3.33158 7.64001 2.62158H15Z" stroke="#007E8F" stroke-width="1.5" stroke-linecap="round" stroke-linejoin="round"/>
<path d="M22 14.6216V17.6216C22 19.2816 20.66 20.6216 19 20.6216H18C18 19.5216 17.1 18.6216 16 18.6216C14.9 18.6216 14 19.5216 14 20.6216H10C10 19.5216 9.1 18.6216 8 18.6216C6.9 18.6216 6 19.5216 6 20.6216H5C3.34 20.6216 2 19.2816 2 17.6216V14.6216H13C14.1 14.6216 15 13.7216 15 12.6216V5.62158H16.84C17.56 5.62158 18.22 6.01159 18.58 6.63159L20.29 9.62158H19C18.45 9.62158 18 10.0716 18 10.6216V13.6216C18 14.1716 18.45 14.6216 19 14.6216H22Z" stroke="#007E8F" stroke-width="1.5" stroke-linecap="round" stroke-linejoin="round"/>
<path d="M8 22.6216C9.10457 22.6216 10 21.7262 10 20.6216C10 19.517 9.10457 18.6216 8 18.6216C6.89543 18.6216 6 19.517 6 20.6216C6 21.7262 6.89543 22.6216 8 22.6216Z" stroke="#007E8F" stroke-width="1.5" stroke-linecap="round" stroke-linejoin="round"/>
<path d="M16 22.6216C17.1046 22.6216 18 21.7262 18 20.6216C18 19.517 17.1046 18.6216 16 18.6216C14.8954 18.6216 14 19.517 14 20.6216C14 21.7262 14.8954 22.6216 16 22.6216Z" stroke="#007E8F" stroke-width="1.5" stroke-linecap="round" stroke-linejoin="round"/>
<path d="M22 12.6216V14.6216H19C18.45 14.6216 18 14.1716 18 13.6216V10.6216C18 10.0716 18.45 9.62158 19 9.62158H20.29L22 12.6216Z" stroke="#007E8F" stroke-width="1.5" stroke-linecap="round" stroke-linejoin="round"/>
<path d="M9.00017 5.53182C9.02017 6.28182 8.82019 7.00184 8.46019 7.61184C8.26019 7.97184 8.00017 8.30185 7.69017 8.56185C7.01017 9.21185 6.1002 9.60185 5.0902 9.62185C3.8502 9.65185 2.73017 9.11184 2.00017 8.24184C1.86017 8.09184 1.74018 7.92185 1.63018 7.75185C1.24018 7.16185 1.02017 6.46187 1.00017 5.71187C0.970172 4.45187 1.53016 3.30184 2.43016 2.55184C3.11016 1.99184 3.97014 1.64185 4.91014 1.62185C5.96014 1.60185 6.92019 1.98185 7.64019 2.62185C8.45019 3.33185 8.97017 4.36182 9.00017 5.53182Z" stroke="#007E8F" stroke-width="1.5" stroke-miterlimit="10" stroke-linecap="round" stroke-linejoin="round"/>
<path d="M3.44043 5.65186L4.45044 6.61182L6.54041 4.5918" stroke="#007E8F" stroke-width="1.5" stroke-linecap="round" stroke-linejoin="round"/>
</svg>
