<svg width="27" height="27" viewBox="0 0 27 27" fill="none" xmlns="http://www.w3.org/2000/svg">
<path d="M10.1721 21.2473C10.1721 22.086 9.93723 22.88 9.52346 23.551C8.75185 24.8482 7.33164 25.7204 5.69895 25.7204C4.06626 25.7204 2.64605 24.8482 1.87443 23.551C1.46067 22.88 1.22583 22.086 1.22583 21.2473C1.22583 18.7759 3.22755 16.7742 5.69895 16.7742C8.17035 16.7742 10.1721 18.7759 10.1721 21.2473Z" stroke="#007E8F" stroke-width="1.67742" stroke-miterlimit="10" stroke-linecap="round" stroke-linejoin="round"/>
<path d="M3.95599 21.2468L5.06309 22.3539L7.44503 20.1509" stroke="#007E8F" stroke-width="1.67742" stroke-linecap="round" stroke-linejoin="round"/>
<path d="M19.9586 7.88383C19.6902 7.8391 19.4106 7.82793 19.1199 7.82793H7.93709C7.62397 7.82793 7.32203 7.8503 7.03128 7.89503C7.18784 7.58191 7.4115 7.29119 7.67988 7.0228L11.3143 3.3772C12.8463 1.85634 15.3289 1.85634 16.861 3.3772L18.8179 5.35651C19.5336 6.06103 19.9139 6.95566 19.9586 7.88383Z" stroke="#007E8F" stroke-width="1.67742" stroke-linecap="round" stroke-linejoin="round"/>
<path d="M24.7097 13.4194V19.0108C24.7097 22.3656 22.4731 24.6022 19.1183 24.6022H8.64003C8.9867 24.3114 9.28863 23.9535 9.52347 23.551C9.93723 22.88 10.1721 22.086 10.1721 21.2473C10.1721 18.7759 8.17035 16.7742 5.69895 16.7742C4.35702 16.7742 3.16046 17.3669 2.34412 18.295V13.4194C2.34412 10.3776 4.17809 8.2529 7.02971 7.89505C7.32046 7.85032 7.6224 7.82796 7.93551 7.82796H19.1183C19.4091 7.82796 19.6886 7.83913 19.957 7.88386C22.8422 8.21934 24.7097 10.3553 24.7097 13.4194Z" stroke="#007E8F" stroke-width="1.67742" stroke-linecap="round" stroke-linejoin="round"/>
<path d="M24.7097 13.9785H21.3548C20.1247 13.9785 19.1183 14.985 19.1183 16.2151C19.1183 17.4452 20.1247 18.4516 21.3548 18.4516H24.7097" stroke="#007E8F" stroke-width="1.67742" stroke-linecap="round" stroke-linejoin="round"/>
</svg>
