<svg width="24" height="25" viewBox="0 0 24 25" fill="none" xmlns="http://www.w3.org/2000/svg">
<path d="M7.35714 14.8368C6.38095 11.9082 5.01709 5.57049 4.42857 4.2939L20.6195 6.3614C21.3405 6.45348 21.8045 7.17316 21.5907 7.8679L19.6571 14.152C19.0714 15.81 18.4857 16.4948 16.7286 16.594H10.2857C8.41143 16.594 7.55238 15.4225 7.35714 14.8368Z" fill="white"/>
<path d="M1.5 3.12247C2.47619 2.92724 3.84286 3.02341 4.42857 4.2939M4.42857 4.2939C5.01709 5.57049 6.38095 11.9082 7.35714 14.8368C7.55238 15.4225 8.41143 16.594 10.2857 16.594C12.16 16.594 15.3619 16.594 16.7286 16.594C18.4857 16.4948 19.0714 15.81 19.6571 14.152L21.5907 7.8679C21.8045 7.17316 21.3405 6.45348 20.6195 6.3614L4.42857 4.2939Z" stroke="white" stroke-width="1.5" stroke-linecap="round"/>
<circle cx="9.70028" cy="20.5948" r="1.59286" stroke="white" stroke-width="1.5"/>
<circle cx="17.9005" cy="20.5948" r="1.59286" stroke="white" stroke-width="1.5"/>
</svg>
